<?xml version="1.0" encoding="utf-8" standalone="no"?>
<!DOCTYPE svg PUBLIC "-//W3C//DTD SVG 1.1//EN"
  "http://www.w3.org/Graphics/SVG/1.1/DTD/svg11.dtd">
<!-- Created with matplotlib (https://matplotlib.org/) -->
<svg height="432pt" version="1.1" viewBox="0 0 720 432" width="720pt" xmlns="http://www.w3.org/2000/svg" xmlns:xlink="http://www.w3.org/1999/xlink">
 <metadata>
  <rdf:RDF xmlns:cc="http://creativecommons.org/ns#" xmlns:dc="http://purl.org/dc/elements/1.1/" xmlns:rdf="http://www.w3.org/1999/02/22-rdf-syntax-ns#">
   <cc:Work>
    <dc:type rdf:resource="http://purl.org/dc/dcmitype/StillImage"/>
    <dc:date>2023-04-12T10:34:19.172742</dc:date>
    <dc:format>image/svg+xml</dc:format>
    <dc:creator>
     <cc:Agent>
      <dc:title>Matplotlib v3.3.4, https://matplotlib.org/</dc:title>
     </cc:Agent>
    </dc:creator>
   </cc:Work>
  </rdf:RDF>
 </metadata>
 <defs>
  <style type="text/css">*{stroke-linecap:butt;stroke-linejoin:round;}</style>
 </defs>
 <g id="figure_1">
  <g id="patch_1">
   <path d="M 0 432 
L 720 432 
L 720 0 
L 0 0 
z
" style="fill:#ffffff;"/>
  </g>
  <g id="axes_1">
   <g id="patch_2">
    <path d="M 50.87 390.04 
L 360.249058 390.04 
L 360.249058 26.88 
L 50.87 26.88 
z
" style="fill:#ffffff;"/>
   </g>
   <g id="matplotlib.axis_1">
    <g id="xtick_1">
     <g id="line2d_1">
      <defs>
       <path d="M 0 0 
L 0 3.5 
" id="m1317321d2e" style="stroke:#000000;stroke-width:0.8;"/>
      </defs>
      <g>
       <use style="stroke:#000000;stroke-width:0.8;" x="64.932684" xlink:href="#m1317321d2e" y="390.04"/>
      </g>
     </g>
     <g id="text_1">
      <!-- 0 -->
      <g transform="translate(61.751434 404.638438)scale(0.1 -0.1)">
       <defs>
        <path d="M 31.78125 66.40625 
Q 24.171875 66.40625 20.328125 58.90625 
Q 16.5 51.421875 16.5 36.375 
Q 16.5 21.390625 20.328125 13.890625 
Q 24.171875 6.390625 31.78125 6.390625 
Q 39.453125 6.390625 43.28125 13.890625 
Q 47.125 21.390625 47.125 36.375 
Q 47.125 51.421875 43.28125 58.90625 
Q 39.453125 66.40625 31.78125 66.40625 
z
M 31.78125 74.21875 
Q 44.046875 74.21875 50.515625 64.515625 
Q 56.984375 54.828125 56.984375 36.375 
Q 56.984375 17.96875 50.515625 8.265625 
Q 44.046875 -1.421875 31.78125 -1.421875 
Q 19.53125 -1.421875 13.0625 8.265625 
Q 6.59375 17.96875 6.59375 36.375 
Q 6.59375 54.828125 13.0625 64.515625 
Q 19.53125 74.21875 31.78125 74.21875 
z
" id="DejaVuSans-48"/>
       </defs>
       <use xlink:href="#DejaVuSans-48"/>
      </g>
     </g>
    </g>
    <g id="xtick_2">
     <g id="line2d_2">
      <g>
       <use style="stroke:#000000;stroke-width:0.8;" x="100.124588" xlink:href="#m1317321d2e" y="390.04"/>
      </g>
     </g>
     <g id="text_2">
      <!-- 250 -->
      <g transform="translate(90.580838 404.638438)scale(0.1 -0.1)">
       <defs>
        <path d="M 19.1875 8.296875 
L 53.609375 8.296875 
L 53.609375 0 
L 7.328125 0 
L 7.328125 8.296875 
Q 12.9375 14.109375 22.625 23.890625 
Q 32.328125 33.6875 34.8125 36.53125 
Q 39.546875 41.84375 41.421875 45.53125 
Q 43.3125 49.21875 43.3125 52.78125 
Q 43.3125 58.59375 39.234375 62.25 
Q 35.15625 65.921875 28.609375 65.921875 
Q 23.96875 65.921875 18.8125 64.3125 
Q 13.671875 62.703125 7.8125 59.421875 
L 7.8125 69.390625 
Q 13.765625 71.78125 18.9375 73 
Q 24.125 74.21875 28.421875 74.21875 
Q 39.75 74.21875 46.484375 68.546875 
Q 53.21875 62.890625 53.21875 53.421875 
Q 53.21875 48.921875 51.53125 44.890625 
Q 49.859375 40.875 45.40625 35.40625 
Q 44.1875 33.984375 37.640625 27.21875 
Q 31.109375 20.453125 19.1875 8.296875 
z
" id="DejaVuSans-50"/>
        <path d="M 10.796875 72.90625 
L 49.515625 72.90625 
L 49.515625 64.59375 
L 19.828125 64.59375 
L 19.828125 46.734375 
Q 21.96875 47.46875 24.109375 47.828125 
Q 26.265625 48.1875 28.421875 48.1875 
Q 40.625 48.1875 47.75 41.5 
Q 54.890625 34.8125 54.890625 23.390625 
Q 54.890625 11.625 47.5625 5.09375 
Q 40.234375 -1.421875 26.90625 -1.421875 
Q 22.3125 -1.421875 17.546875 -0.640625 
Q 12.796875 0.140625 7.71875 1.703125 
L 7.71875 11.625 
Q 12.109375 9.234375 16.796875 8.0625 
Q 21.484375 6.890625 26.703125 6.890625 
Q 35.15625 6.890625 40.078125 11.328125 
Q 45.015625 15.765625 45.015625 23.390625 
Q 45.015625 31 40.078125 35.4375 
Q 35.15625 39.890625 26.703125 39.890625 
Q 22.75 39.890625 18.8125 39.015625 
Q 14.890625 38.140625 10.796875 36.28125 
z
" id="DejaVuSans-53"/>
       </defs>
       <use xlink:href="#DejaVuSans-50"/>
       <use x="63.623047" xlink:href="#DejaVuSans-53"/>
       <use x="127.246094" xlink:href="#DejaVuSans-48"/>
      </g>
     </g>
    </g>
    <g id="xtick_3">
     <g id="line2d_3">
      <g>
       <use style="stroke:#000000;stroke-width:0.8;" x="135.316491" xlink:href="#m1317321d2e" y="390.04"/>
      </g>
     </g>
     <g id="text_3">
      <!-- 500 -->
      <g transform="translate(125.772741 404.638438)scale(0.1 -0.1)">
       <use xlink:href="#DejaVuSans-53"/>
       <use x="63.623047" xlink:href="#DejaVuSans-48"/>
       <use x="127.246094" xlink:href="#DejaVuSans-48"/>
      </g>
     </g>
    </g>
    <g id="xtick_4">
     <g id="line2d_4">
      <g>
       <use style="stroke:#000000;stroke-width:0.8;" x="170.508394" xlink:href="#m1317321d2e" y="390.04"/>
      </g>
     </g>
     <g id="text_4">
      <!-- 750 -->
      <g transform="translate(160.964644 404.638438)scale(0.1 -0.1)">
       <defs>
        <path d="M 8.203125 72.90625 
L 55.078125 72.90625 
L 55.078125 68.703125 
L 28.609375 0 
L 18.3125 0 
L 43.21875 64.59375 
L 8.203125 64.59375 
z
" id="DejaVuSans-55"/>
       </defs>
       <use xlink:href="#DejaVuSans-55"/>
       <use x="63.623047" xlink:href="#DejaVuSans-53"/>
       <use x="127.246094" xlink:href="#DejaVuSans-48"/>
      </g>
     </g>
    </g>
    <g id="xtick_5">
     <g id="line2d_5">
      <g>
       <use style="stroke:#000000;stroke-width:0.8;" x="205.700297" xlink:href="#m1317321d2e" y="390.04"/>
      </g>
     </g>
     <g id="text_5">
      <!-- 1000 -->
      <g transform="translate(192.975297 404.638438)scale(0.1 -0.1)">
       <defs>
        <path d="M 12.40625 8.296875 
L 28.515625 8.296875 
L 28.515625 63.921875 
L 10.984375 60.40625 
L 10.984375 69.390625 
L 28.421875 72.90625 
L 38.28125 72.90625 
L 38.28125 8.296875 
L 54.390625 8.296875 
L 54.390625 0 
L 12.40625 0 
z
" id="DejaVuSans-49"/>
       </defs>
       <use xlink:href="#DejaVuSans-49"/>
       <use x="63.623047" xlink:href="#DejaVuSans-48"/>
       <use x="127.246094" xlink:href="#DejaVuSans-48"/>
       <use x="190.869141" xlink:href="#DejaVuSans-48"/>
      </g>
     </g>
    </g>
    <g id="xtick_6">
     <g id="line2d_6">
      <g>
       <use style="stroke:#000000;stroke-width:0.8;" x="240.8922" xlink:href="#m1317321d2e" y="390.04"/>
      </g>
     </g>
     <g id="text_6">
      <!-- 1250 -->
      <g transform="translate(228.1672 404.638438)scale(0.1 -0.1)">
       <use xlink:href="#DejaVuSans-49"/>
       <use x="63.623047" xlink:href="#DejaVuSans-50"/>
       <use x="127.246094" xlink:href="#DejaVuSans-53"/>
       <use x="190.869141" xlink:href="#DejaVuSans-48"/>
      </g>
     </g>
    </g>
    <g id="xtick_7">
     <g id="line2d_7">
      <g>
       <use style="stroke:#000000;stroke-width:0.8;" x="276.084103" xlink:href="#m1317321d2e" y="390.04"/>
      </g>
     </g>
     <g id="text_7">
      <!-- 1500 -->
      <g transform="translate(263.359103 404.638438)scale(0.1 -0.1)">
       <use xlink:href="#DejaVuSans-49"/>
       <use x="63.623047" xlink:href="#DejaVuSans-53"/>
       <use x="127.246094" xlink:href="#DejaVuSans-48"/>
       <use x="190.869141" xlink:href="#DejaVuSans-48"/>
      </g>
     </g>
    </g>
    <g id="xtick_8">
     <g id="line2d_8">
      <g>
       <use style="stroke:#000000;stroke-width:0.8;" x="311.276006" xlink:href="#m1317321d2e" y="390.04"/>
      </g>
     </g>
     <g id="text_8">
      <!-- 1750 -->
      <g transform="translate(298.551006 404.638438)scale(0.1 -0.1)">
       <use xlink:href="#DejaVuSans-49"/>
       <use x="63.623047" xlink:href="#DejaVuSans-55"/>
       <use x="127.246094" xlink:href="#DejaVuSans-53"/>
       <use x="190.869141" xlink:href="#DejaVuSans-48"/>
      </g>
     </g>
    </g>
    <g id="xtick_9">
     <g id="line2d_9">
      <g>
       <use style="stroke:#000000;stroke-width:0.8;" x="346.467909" xlink:href="#m1317321d2e" y="390.04"/>
      </g>
     </g>
     <g id="text_9">
      <!-- 2000 -->
      <g transform="translate(333.742909 404.638438)scale(0.1 -0.1)">
       <use xlink:href="#DejaVuSans-50"/>
       <use x="63.623047" xlink:href="#DejaVuSans-48"/>
       <use x="127.246094" xlink:href="#DejaVuSans-48"/>
       <use x="190.869141" xlink:href="#DejaVuSans-48"/>
      </g>
     </g>
    </g>
    <g id="text_10">
     <!-- Done Episode -->
     <g transform="translate(171.178279 418.316562)scale(0.1 -0.1)">
      <defs>
       <path d="M 19.671875 64.796875 
L 19.671875 8.109375 
L 31.59375 8.109375 
Q 46.6875 8.109375 53.6875 14.9375 
Q 60.6875 21.78125 60.6875 36.53125 
Q 60.6875 51.171875 53.6875 57.984375 
Q 46.6875 64.796875 31.59375 64.796875 
z
M 9.8125 72.90625 
L 30.078125 72.90625 
Q 51.265625 72.90625 61.171875 64.09375 
Q 71.09375 55.28125 71.09375 36.53125 
Q 71.09375 17.671875 61.125 8.828125 
Q 51.171875 0 30.078125 0 
L 9.8125 0 
z
" id="DejaVuSans-68"/>
       <path d="M 30.609375 48.390625 
Q 23.390625 48.390625 19.1875 42.75 
Q 14.984375 37.109375 14.984375 27.296875 
Q 14.984375 17.484375 19.15625 11.84375 
Q 23.34375 6.203125 30.609375 6.203125 
Q 37.796875 6.203125 41.984375 11.859375 
Q 46.1875 17.53125 46.1875 27.296875 
Q 46.1875 37.015625 41.984375 42.703125 
Q 37.796875 48.390625 30.609375 48.390625 
z
M 30.609375 56 
Q 42.328125 56 49.015625 48.375 
Q 55.71875 40.765625 55.71875 27.296875 
Q 55.71875 13.875 49.015625 6.21875 
Q 42.328125 -1.421875 30.609375 -1.421875 
Q 18.84375 -1.421875 12.171875 6.21875 
Q 5.515625 13.875 5.515625 27.296875 
Q 5.515625 40.765625 12.171875 48.375 
Q 18.84375 56 30.609375 56 
z
" id="DejaVuSans-111"/>
       <path d="M 54.890625 33.015625 
L 54.890625 0 
L 45.90625 0 
L 45.90625 32.71875 
Q 45.90625 40.484375 42.875 44.328125 
Q 39.84375 48.1875 33.796875 48.1875 
Q 26.515625 48.1875 22.3125 43.546875 
Q 18.109375 38.921875 18.109375 30.90625 
L 18.109375 0 
L 9.078125 0 
L 9.078125 54.6875 
L 18.109375 54.6875 
L 18.109375 46.1875 
Q 21.34375 51.125 25.703125 53.5625 
Q 30.078125 56 35.796875 56 
Q 45.21875 56 50.046875 50.171875 
Q 54.890625 44.34375 54.890625 33.015625 
z
" id="DejaVuSans-110"/>
       <path d="M 56.203125 29.59375 
L 56.203125 25.203125 
L 14.890625 25.203125 
Q 15.484375 15.921875 20.484375 11.0625 
Q 25.484375 6.203125 34.421875 6.203125 
Q 39.59375 6.203125 44.453125 7.46875 
Q 49.3125 8.734375 54.109375 11.28125 
L 54.109375 2.78125 
Q 49.265625 0.734375 44.1875 -0.34375 
Q 39.109375 -1.421875 33.890625 -1.421875 
Q 20.796875 -1.421875 13.15625 6.1875 
Q 5.515625 13.8125 5.515625 26.8125 
Q 5.515625 40.234375 12.765625 48.109375 
Q 20.015625 56 32.328125 56 
Q 43.359375 56 49.78125 48.890625 
Q 56.203125 41.796875 56.203125 29.59375 
z
M 47.21875 32.234375 
Q 47.125 39.59375 43.09375 43.984375 
Q 39.0625 48.390625 32.421875 48.390625 
Q 24.90625 48.390625 20.390625 44.140625 
Q 15.875 39.890625 15.1875 32.171875 
z
" id="DejaVuSans-101"/>
       <path id="DejaVuSans-32"/>
       <path d="M 9.8125 72.90625 
L 55.90625 72.90625 
L 55.90625 64.59375 
L 19.671875 64.59375 
L 19.671875 43.015625 
L 54.390625 43.015625 
L 54.390625 34.71875 
L 19.671875 34.71875 
L 19.671875 8.296875 
L 56.78125 8.296875 
L 56.78125 0 
L 9.8125 0 
z
" id="DejaVuSans-69"/>
       <path d="M 18.109375 8.203125 
L 18.109375 -20.796875 
L 9.078125 -20.796875 
L 9.078125 54.6875 
L 18.109375 54.6875 
L 18.109375 46.390625 
Q 20.953125 51.265625 25.265625 53.625 
Q 29.59375 56 35.59375 56 
Q 45.5625 56 51.78125 48.09375 
Q 58.015625 40.1875 58.015625 27.296875 
Q 58.015625 14.40625 51.78125 6.484375 
Q 45.5625 -1.421875 35.59375 -1.421875 
Q 29.59375 -1.421875 25.265625 0.953125 
Q 20.953125 3.328125 18.109375 8.203125 
z
M 48.6875 27.296875 
Q 48.6875 37.203125 44.609375 42.84375 
Q 40.53125 48.484375 33.40625 48.484375 
Q 26.265625 48.484375 22.1875 42.84375 
Q 18.109375 37.203125 18.109375 27.296875 
Q 18.109375 17.390625 22.1875 11.75 
Q 26.265625 6.109375 33.40625 6.109375 
Q 40.53125 6.109375 44.609375 11.75 
Q 48.6875 17.390625 48.6875 27.296875 
z
" id="DejaVuSans-112"/>
       <path d="M 9.421875 54.6875 
L 18.40625 54.6875 
L 18.40625 0 
L 9.421875 0 
z
M 9.421875 75.984375 
L 18.40625 75.984375 
L 18.40625 64.59375 
L 9.421875 64.59375 
z
" id="DejaVuSans-105"/>
       <path d="M 44.28125 53.078125 
L 44.28125 44.578125 
Q 40.484375 46.53125 36.375 47.5 
Q 32.28125 48.484375 27.875 48.484375 
Q 21.1875 48.484375 17.84375 46.4375 
Q 14.5 44.390625 14.5 40.28125 
Q 14.5 37.15625 16.890625 35.375 
Q 19.28125 33.59375 26.515625 31.984375 
L 29.59375 31.296875 
Q 39.15625 29.25 43.1875 25.515625 
Q 47.21875 21.78125 47.21875 15.09375 
Q 47.21875 7.46875 41.1875 3.015625 
Q 35.15625 -1.421875 24.609375 -1.421875 
Q 20.21875 -1.421875 15.453125 -0.5625 
Q 10.6875 0.296875 5.421875 2 
L 5.421875 11.28125 
Q 10.40625 8.6875 15.234375 7.390625 
Q 20.0625 6.109375 24.8125 6.109375 
Q 31.15625 6.109375 34.5625 8.28125 
Q 37.984375 10.453125 37.984375 14.40625 
Q 37.984375 18.0625 35.515625 20.015625 
Q 33.0625 21.96875 24.703125 23.78125 
L 21.578125 24.515625 
Q 13.234375 26.265625 9.515625 29.90625 
Q 5.8125 33.546875 5.8125 39.890625 
Q 5.8125 47.609375 11.28125 51.796875 
Q 16.75 56 26.8125 56 
Q 31.78125 56 36.171875 55.265625 
Q 40.578125 54.546875 44.28125 53.078125 
z
" id="DejaVuSans-115"/>
       <path d="M 45.40625 46.390625 
L 45.40625 75.984375 
L 54.390625 75.984375 
L 54.390625 0 
L 45.40625 0 
L 45.40625 8.203125 
Q 42.578125 3.328125 38.25 0.953125 
Q 33.9375 -1.421875 27.875 -1.421875 
Q 17.96875 -1.421875 11.734375 6.484375 
Q 5.515625 14.40625 5.515625 27.296875 
Q 5.515625 40.1875 11.734375 48.09375 
Q 17.96875 56 27.875 56 
Q 33.9375 56 38.25 53.625 
Q 42.578125 51.265625 45.40625 46.390625 
z
M 14.796875 27.296875 
Q 14.796875 17.390625 18.875 11.75 
Q 22.953125 6.109375 30.078125 6.109375 
Q 37.203125 6.109375 41.296875 11.75 
Q 45.40625 17.390625 45.40625 27.296875 
Q 45.40625 37.203125 41.296875 42.84375 
Q 37.203125 48.484375 30.078125 48.484375 
Q 22.953125 48.484375 18.875 42.84375 
Q 14.796875 37.203125 14.796875 27.296875 
z
" id="DejaVuSans-100"/>
      </defs>
      <use xlink:href="#DejaVuSans-68"/>
      <use x="77.001953" xlink:href="#DejaVuSans-111"/>
      <use x="138.183594" xlink:href="#DejaVuSans-110"/>
      <use x="201.5625" xlink:href="#DejaVuSans-101"/>
      <use x="263.085938" xlink:href="#DejaVuSans-32"/>
      <use x="294.873047" xlink:href="#DejaVuSans-69"/>
      <use x="358.056641" xlink:href="#DejaVuSans-112"/>
      <use x="421.533203" xlink:href="#DejaVuSans-105"/>
      <use x="449.316406" xlink:href="#DejaVuSans-115"/>
      <use x="501.416016" xlink:href="#DejaVuSans-111"/>
      <use x="562.597656" xlink:href="#DejaVuSans-100"/>
      <use x="626.074219" xlink:href="#DejaVuSans-101"/>
     </g>
    </g>
   </g>
   <g id="matplotlib.axis_2">
    <g id="ytick_1">
     <g id="line2d_10">
      <defs>
       <path d="M 0 0 
L -3.5 0 
" id="mcbdc260c6c" style="stroke:#000000;stroke-width:0.8;"/>
      </defs>
      <g>
       <use style="stroke:#000000;stroke-width:0.8;" x="50.87" xlink:href="#mcbdc260c6c" y="373.532727"/>
      </g>
     </g>
     <g id="text_11">
      <!-- 0 -->
      <g transform="translate(37.5075 377.331946)scale(0.1 -0.1)">
       <use xlink:href="#DejaVuSans-48"/>
      </g>
     </g>
    </g>
    <g id="ytick_2">
     <g id="line2d_11">
      <g>
       <use style="stroke:#000000;stroke-width:0.8;" x="50.87" xlink:href="#mcbdc260c6c" y="329.395634"/>
      </g>
     </g>
     <g id="text_12">
      <!-- 25 -->
      <g transform="translate(31.145 333.194853)scale(0.1 -0.1)">
       <use xlink:href="#DejaVuSans-50"/>
       <use x="63.623047" xlink:href="#DejaVuSans-53"/>
      </g>
     </g>
    </g>
    <g id="ytick_3">
     <g id="line2d_12">
      <g>
       <use style="stroke:#000000;stroke-width:0.8;" x="50.87" xlink:href="#mcbdc260c6c" y="285.258542"/>
      </g>
     </g>
     <g id="text_13">
      <!-- 50 -->
      <g transform="translate(31.145 289.05776)scale(0.1 -0.1)">
       <use xlink:href="#DejaVuSans-53"/>
       <use x="63.623047" xlink:href="#DejaVuSans-48"/>
      </g>
     </g>
    </g>
    <g id="ytick_4">
     <g id="line2d_13">
      <g>
       <use style="stroke:#000000;stroke-width:0.8;" x="50.87" xlink:href="#mcbdc260c6c" y="241.121449"/>
      </g>
     </g>
     <g id="text_14">
      <!-- 75 -->
      <g transform="translate(31.145 244.920667)scale(0.1 -0.1)">
       <use xlink:href="#DejaVuSans-55"/>
       <use x="63.623047" xlink:href="#DejaVuSans-53"/>
      </g>
     </g>
    </g>
    <g id="ytick_5">
     <g id="line2d_14">
      <g>
       <use style="stroke:#000000;stroke-width:0.8;" x="50.87" xlink:href="#mcbdc260c6c" y="196.984356"/>
      </g>
     </g>
     <g id="text_15">
      <!-- 100 -->
      <g transform="translate(24.7825 200.783575)scale(0.1 -0.1)">
       <use xlink:href="#DejaVuSans-49"/>
       <use x="63.623047" xlink:href="#DejaVuSans-48"/>
       <use x="127.246094" xlink:href="#DejaVuSans-48"/>
      </g>
     </g>
    </g>
    <g id="ytick_6">
     <g id="line2d_15">
      <g>
       <use style="stroke:#000000;stroke-width:0.8;" x="50.87" xlink:href="#mcbdc260c6c" y="152.847263"/>
      </g>
     </g>
     <g id="text_16">
      <!-- 125 -->
      <g transform="translate(24.7825 156.646482)scale(0.1 -0.1)">
       <use xlink:href="#DejaVuSans-49"/>
       <use x="63.623047" xlink:href="#DejaVuSans-50"/>
       <use x="127.246094" xlink:href="#DejaVuSans-53"/>
      </g>
     </g>
    </g>
    <g id="ytick_7">
     <g id="line2d_16">
      <g>
       <use style="stroke:#000000;stroke-width:0.8;" x="50.87" xlink:href="#mcbdc260c6c" y="108.71017"/>
      </g>
     </g>
     <g id="text_17">
      <!-- 150 -->
      <g transform="translate(24.7825 112.509389)scale(0.1 -0.1)">
       <use xlink:href="#DejaVuSans-49"/>
       <use x="63.623047" xlink:href="#DejaVuSans-53"/>
       <use x="127.246094" xlink:href="#DejaVuSans-48"/>
      </g>
     </g>
    </g>
    <g id="ytick_8">
     <g id="line2d_17">
      <g>
       <use style="stroke:#000000;stroke-width:0.8;" x="50.87" xlink:href="#mcbdc260c6c" y="64.573077"/>
      </g>
     </g>
     <g id="text_18">
      <!-- 175 -->
      <g transform="translate(24.7825 68.372296)scale(0.1 -0.1)">
       <use xlink:href="#DejaVuSans-49"/>
       <use x="63.623047" xlink:href="#DejaVuSans-55"/>
       <use x="127.246094" xlink:href="#DejaVuSans-53"/>
      </g>
     </g>
    </g>
    <g id="text_19">
     <!-- Steps -->
     <g transform="translate(18.702813 222.449844)rotate(-90)scale(0.1 -0.1)">
      <defs>
       <path d="M 53.515625 70.515625 
L 53.515625 60.890625 
Q 47.90625 63.578125 42.921875 64.890625 
Q 37.9375 66.21875 33.296875 66.21875 
Q 25.25 66.21875 20.875 63.09375 
Q 16.5 59.96875 16.5 54.203125 
Q 16.5 49.359375 19.40625 46.890625 
Q 22.3125 44.4375 30.421875 42.921875 
L 36.375 41.703125 
Q 47.40625 39.59375 52.65625 34.296875 
Q 57.90625 29 57.90625 20.125 
Q 57.90625 9.515625 50.796875 4.046875 
Q 43.703125 -1.421875 29.984375 -1.421875 
Q 24.8125 -1.421875 18.96875 -0.25 
Q 13.140625 0.921875 6.890625 3.21875 
L 6.890625 13.375 
Q 12.890625 10.015625 18.65625 8.296875 
Q 24.421875 6.59375 29.984375 6.59375 
Q 38.421875 6.59375 43.015625 9.90625 
Q 47.609375 13.234375 47.609375 19.390625 
Q 47.609375 24.75 44.3125 27.78125 
Q 41.015625 30.8125 33.5 32.328125 
L 27.484375 33.5 
Q 16.453125 35.6875 11.515625 40.375 
Q 6.59375 45.0625 6.59375 53.421875 
Q 6.59375 63.09375 13.40625 68.65625 
Q 20.21875 74.21875 32.171875 74.21875 
Q 37.3125 74.21875 42.625 73.28125 
Q 47.953125 72.359375 53.515625 70.515625 
z
" id="DejaVuSans-83"/>
       <path d="M 18.3125 70.21875 
L 18.3125 54.6875 
L 36.8125 54.6875 
L 36.8125 47.703125 
L 18.3125 47.703125 
L 18.3125 18.015625 
Q 18.3125 11.328125 20.140625 9.421875 
Q 21.96875 7.515625 27.59375 7.515625 
L 36.8125 7.515625 
L 36.8125 0 
L 27.59375 0 
Q 17.1875 0 13.234375 3.875 
Q 9.28125 7.765625 9.28125 18.015625 
L 9.28125 47.703125 
L 2.6875 47.703125 
L 2.6875 54.6875 
L 9.28125 54.6875 
L 9.28125 70.21875 
z
" id="DejaVuSans-116"/>
      </defs>
      <use xlink:href="#DejaVuSans-83"/>
      <use x="63.476562" xlink:href="#DejaVuSans-116"/>
      <use x="102.685547" xlink:href="#DejaVuSans-101"/>
      <use x="164.208984" xlink:href="#DejaVuSans-112"/>
      <use x="227.685547" xlink:href="#DejaVuSans-115"/>
     </g>
    </g>
   </g>
   <g id="line2d_18">
    <path clip-path="url(#p9be4950341)" d="M 64.932684 361.174341 
L 65.073452 373.532727 
L 65.21422 361.174341 
L 65.354987 364.705309 
L 65.495755 357.643374 
L 65.636523 370.00176 
L 65.918058 370.00176 
L 66.058825 355.87789 
L 66.199593 370.00176 
L 66.340361 370.00176 
L 66.481128 373.532727 
L 66.621896 370.00176 
L 66.762663 373.532727 
L 66.903431 371.767244 
L 67.184966 362.939825 
L 67.466501 373.532727 
L 67.607269 370.00176 
L 67.748037 373.532727 
L 68.029572 359.408858 
L 68.17034 370.00176 
L 68.451875 364.705309 
L 68.592642 371.767244 
L 68.73341 370.00176 
L 68.874178 364.705309 
L 69.155713 373.532727 
L 69.29648 371.767244 
L 69.437248 362.939825 
L 69.578016 368.236276 
L 69.718783 368.236276 
L 69.859551 364.705309 
L 70.000319 371.767244 
L 70.281854 366.470792 
L 70.422621 371.767244 
L 70.563389 366.470792 
L 70.704157 373.532727 
L 70.844924 371.767244 
L 70.985692 371.767244 
L 71.126459 366.470792 
L 71.407995 373.532727 
L 71.548762 371.767244 
L 71.830297 345.284988 
L 71.971065 368.236276 
L 72.111833 362.939825 
L 72.2526 371.767244 
L 72.393368 370.00176 
L 72.534136 373.532727 
L 72.674903 357.643374 
L 72.815671 373.532727 
L 72.956438 362.939825 
L 73.097206 373.532727 
L 73.237974 373.532727 
L 73.378741 364.705309 
L 73.519509 371.767244 
L 73.660276 371.767244 
L 73.801044 373.532727 
L 74.082579 373.532727 
L 74.223347 359.408858 
L 74.364114 373.532727 
L 74.504882 366.470792 
L 74.64565 371.767244 
L 74.927185 368.236276 
L 75.067953 370.00176 
L 75.20872 366.470792 
L 75.349488 341.75402 
L 75.490255 370.00176 
L 75.631023 364.705309 
L 75.771791 373.532727 
L 76.053326 373.532727 
L 76.194093 371.767244 
L 76.334861 364.705309 
L 76.475629 373.532727 
L 76.897932 361.174341 
L 77.038699 370.00176 
L 77.179467 361.174341 
L 77.60177 373.532727 
L 77.742537 362.939825 
L 77.883305 373.532727 
L 78.024072 371.767244 
L 78.16484 371.767244 
L 78.305608 373.532727 
L 78.446375 373.532727 
L 78.587143 366.470792 
L 78.72791 373.532727 
L 78.868678 359.408858 
L 79.009446 371.767244 
L 79.150213 371.767244 
L 79.290981 354.112406 
L 79.431749 371.767244 
L 79.572516 373.532727 
L 79.713284 366.470792 
L 79.994819 373.532727 
L 80.135587 373.532727 
L 80.276354 366.470792 
L 80.417122 368.236276 
L 80.557889 371.767244 
L 80.698657 366.470792 
L 80.980192 373.532727 
L 81.12096 371.767244 
L 81.261727 362.939825 
L 81.402495 373.532727 
L 81.543263 366.470792 
L 81.68403 371.767244 
L 81.824798 370.00176 
L 81.965566 373.532727 
L 82.106333 373.532727 
L 82.247101 370.00176 
L 82.387868 373.532727 
L 82.528636 371.767244 
L 82.669404 368.236276 
L 82.810171 370.00176 
L 82.950939 370.00176 
L 83.232474 352.346923 
L 83.373242 370.00176 
L 83.514009 370.00176 
L 83.654777 373.532727 
L 83.795544 366.470792 
L 83.936312 370.00176 
L 84.07708 362.939825 
L 84.217847 370.00176 
L 84.499383 370.00176 
L 84.64015 373.532727 
L 84.780918 366.470792 
L 84.921685 371.767244 
L 85.062453 366.470792 
L 85.343988 373.532727 
L 85.484756 364.705309 
L 85.766291 373.532727 
L 85.907059 371.767244 
L 86.188594 350.581439 
L 86.329362 373.532727 
L 86.470129 364.705309 
L 86.610897 373.532727 
L 86.892432 368.236276 
L 87.0332 371.767244 
L 87.173967 370.00176 
L 87.455502 373.532727 
L 87.737038 370.00176 
L 87.877805 373.532727 
L 88.018573 373.532727 
L 88.15934 343.519504 
L 88.300108 373.532727 
L 88.440876 373.532727 
L 88.722411 364.705309 
L 89.003946 371.767244 
L 89.144714 359.408858 
L 89.285481 371.767244 
L 89.426249 373.532727 
L 89.567017 373.532727 
L 89.848552 348.815955 
L 90.130087 366.470792 
L 90.270855 366.470792 
L 90.411622 364.705309 
L 90.55239 373.532727 
L 90.693157 362.939825 
L 90.833925 370.00176 
L 90.974693 370.00176 
L 91.11546 373.532727 
L 91.256228 362.939825 
L 91.396996 370.00176 
L 91.678531 370.00176 
L 91.960066 366.470792 
L 92.100834 308.20983 
L 92.241601 373.532727 
L 92.523136 364.705309 
L 92.663904 373.532727 
L 92.945439 373.532727 
L 93.086207 371.767244 
L 93.226975 357.643374 
L 93.367742 373.532727 
L 93.50851 362.939825 
L 93.649277 373.532727 
L 93.790045 370.00176 
L 93.930813 373.532727 
L 94.07158 373.532727 
L 94.212348 370.00176 
L 94.353115 370.00176 
L 94.493883 373.532727 
L 94.634651 373.532727 
L 94.916186 368.236276 
L 95.056953 371.767244 
L 95.197721 371.767244 
L 95.338489 364.705309 
L 95.479256 366.470792 
L 95.620024 373.532727 
L 95.760792 371.767244 
L 95.901559 368.236276 
L 96.042327 370.00176 
L 96.183094 357.643374 
L 96.323862 373.532727 
L 96.46463 373.532727 
L 96.746165 368.236276 
L 96.886932 373.532727 
L 97.168468 366.470792 
L 97.309235 368.236276 
L 97.450003 364.705309 
L 97.731538 368.236276 
L 97.872306 371.767244 
L 98.013073 371.767244 
L 98.153841 361.174341 
L 98.294609 371.767244 
L 98.576144 371.767244 
L 98.716911 366.470792 
L 98.857679 371.767244 
L 98.998447 370.00176 
L 99.139214 373.532727 
L 99.561517 364.705309 
L 99.702285 373.532727 
L 99.843052 373.532727 
L 99.98382 368.236276 
L 100.124588 370.00176 
L 100.265355 370.00176 
L 100.406123 364.705309 
L 100.54689 373.532727 
L 100.687658 352.346923 
L 100.969193 373.532727 
L 101.109961 350.581439 
L 101.391496 373.532727 
L 101.532264 373.532727 
L 101.813799 370.00176 
L 101.954566 370.00176 
L 102.095334 368.236276 
L 102.236102 362.939825 
L 102.376869 366.470792 
L 102.517637 373.532727 
L 102.658405 373.532727 
L 102.799172 364.705309 
L 102.93994 371.767244 
L 103.080707 364.705309 
L 103.221475 370.00176 
L 103.362243 364.705309 
L 103.643778 370.00176 
L 103.784545 354.112406 
L 104.066081 370.00176 
L 104.206848 371.767244 
L 104.347616 352.346923 
L 104.629151 373.532727 
L 104.769919 357.643374 
L 104.910686 373.532727 
L 105.051454 368.236276 
L 105.192222 373.532727 
L 105.473757 364.705309 
L 105.755292 371.767244 
L 105.89606 373.532727 
L 106.036827 355.87789 
L 106.177595 370.00176 
L 106.45913 373.532727 
L 106.881433 373.532727 
L 107.022201 371.767244 
L 107.162968 368.236276 
L 107.303736 368.236276 
L 107.444503 362.939825 
L 107.585271 371.767244 
L 107.866806 355.87789 
L 108.007574 371.767244 
L 108.148341 373.532727 
L 108.289109 370.00176 
L 108.429877 309.975314 
L 108.570644 373.532727 
L 108.711412 373.532727 
L 108.992947 364.705309 
L 109.133715 373.532727 
L 109.274482 370.00176 
L 109.41525 332.926602 
L 109.556018 368.236276 
L 109.837553 373.532727 
L 110.119088 345.284988 
L 110.259856 371.767244 
L 110.400623 373.532727 
L 110.541391 370.00176 
L 110.682158 373.532727 
L 110.822926 370.00176 
L 110.963694 345.284988 
L 111.104461 361.174341 
L 111.245229 362.939825 
L 111.385996 371.767244 
L 111.526764 373.532727 
L 111.667532 373.532727 
L 111.949067 359.408858 
L 112.089835 345.284988 
L 112.230602 371.767244 
L 112.37137 368.236276 
L 112.652905 373.532727 
L 112.793673 370.00176 
L 112.93444 373.532727 
L 113.075208 368.236276 
L 113.215975 368.236276 
L 113.356743 361.174341 
L 113.497511 373.532727 
L 113.779046 368.236276 
L 113.919814 371.767244 
L 114.060581 359.408858 
L 114.201349 371.767244 
L 114.342116 361.174341 
L 114.482884 371.767244 
L 114.623652 373.532727 
L 114.764419 362.939825 
L 115.045954 373.532727 
L 115.609025 366.470792 
L 115.749792 371.767244 
L 115.89056 371.767244 
L 116.031328 373.532727 
L 116.172095 371.767244 
L 116.312863 373.532727 
L 116.453631 373.532727 
L 116.594398 371.767244 
L 116.875933 361.174341 
L 117.016701 370.00176 
L 117.298236 370.00176 
L 117.439004 371.767244 
L 117.579771 371.767244 
L 117.720539 364.705309 
L 117.861307 373.532727 
L 118.002074 357.643374 
L 118.142842 362.939825 
L 118.283609 373.532727 
L 118.424377 368.236276 
L 118.705912 368.236276 
L 118.84668 373.532727 
L 119.128215 373.532727 
L 119.40975 370.00176 
L 119.550518 366.470792 
L 119.691286 355.87789 
L 119.832053 357.643374 
L 119.972821 371.767244 
L 120.113588 373.532727 
L 120.254356 361.174341 
L 120.395124 371.767244 
L 120.535891 364.705309 
L 120.817427 373.532727 
L 120.958194 371.767244 
L 121.098962 373.532727 
L 121.239729 373.532727 
L 121.380497 366.470792 
L 121.662032 366.470792 
L 121.8028 368.236276 
L 121.943567 362.939825 
L 122.084335 371.767244 
L 122.506638 366.470792 
L 122.788173 350.581439 
L 122.928941 371.767244 
L 123.069708 370.00176 
L 123.210476 366.470792 
L 123.351244 373.532727 
L 123.492011 362.939825 
L 123.632779 361.174341 
L 123.773546 373.532727 
L 123.914314 327.630151 
L 124.055082 370.00176 
L 124.195849 373.532727 
L 124.336617 366.470792 
L 124.477384 371.767244 
L 124.618152 370.00176 
L 124.75892 373.532727 
L 124.899687 366.470792 
L 125.040455 371.767244 
L 125.181222 370.00176 
L 125.32199 373.532727 
L 125.603525 373.532727 
L 125.744293 370.00176 
L 125.885061 373.532727 
L 126.025828 364.705309 
L 126.166596 371.767244 
L 126.307363 359.408858 
L 126.448131 370.00176 
L 126.588899 366.470792 
L 126.729666 371.767244 
L 126.870434 362.939825 
L 127.151969 373.532727 
L 127.292737 364.705309 
L 127.433504 364.705309 
L 127.574272 361.174341 
L 127.71504 370.00176 
L 127.855807 366.470792 
L 127.996575 373.532727 
L 128.137342 370.00176 
L 128.27811 362.939825 
L 128.559645 362.939825 
L 128.700413 371.767244 
L 128.84118 370.00176 
L 128.981948 373.532727 
L 129.122716 373.532727 
L 129.404251 364.705309 
L 129.545018 362.939825 
L 129.967321 373.532727 
L 130.108089 373.532727 
L 130.248857 370.00176 
L 130.389624 370.00176 
L 130.530392 366.470792 
L 130.671159 370.00176 
L 130.811927 370.00176 
L 130.952695 364.705309 
L 131.093462 373.532727 
L 131.23423 371.767244 
L 131.374997 352.346923 
L 131.515765 371.767244 
L 131.656533 364.705309 
L 131.7973 364.705309 
L 131.938068 373.532727 
L 132.078835 366.470792 
L 132.219603 371.767244 
L 132.360371 368.236276 
L 132.501138 373.532727 
L 132.641906 368.236276 
L 132.782674 373.532727 
L 132.923441 368.236276 
L 133.064209 373.532727 
L 133.345744 366.470792 
L 133.486512 309.975314 
L 133.627279 362.939825 
L 133.768047 373.532727 
L 133.908814 371.767244 
L 134.19035 371.767244 
L 134.331117 366.470792 
L 134.471885 371.767244 
L 134.612653 361.174341 
L 134.75342 371.767244 
L 134.894188 370.00176 
L 135.034955 366.470792 
L 135.175723 368.236276 
L 135.316491 364.705309 
L 135.457258 366.470792 
L 135.598026 354.112406 
L 135.879561 371.767244 
L 136.020329 370.00176 
L 136.161096 373.532727 
L 136.442631 373.532727 
L 136.583399 368.236276 
L 136.724167 373.532727 
L 137.005702 373.532727 
L 137.14647 364.705309 
L 137.428005 373.532727 
L 137.568772 341.75402 
L 137.70954 370.00176 
L 137.850308 370.00176 
L 137.991075 371.767244 
L 138.131843 370.00176 
L 138.27261 373.532727 
L 138.413378 368.236276 
L 138.554146 371.767244 
L 138.694913 368.236276 
L 138.976448 373.532727 
L 139.257984 366.470792 
L 139.398751 373.532727 
L 139.539519 368.236276 
L 139.680287 371.767244 
L 139.821054 362.939825 
L 139.961822 373.532727 
L 140.102589 368.236276 
L 140.243357 301.147895 
L 140.384125 371.767244 
L 140.524892 338.223053 
L 140.66566 364.705309 
L 140.806427 368.236276 
L 140.947195 368.236276 
L 141.087963 373.532727 
L 141.22873 370.00176 
L 141.369498 373.532727 
L 141.510266 373.532727 
L 141.651033 350.581439 
L 141.791801 371.767244 
L 141.932568 370.00176 
L 142.073336 371.767244 
L 142.354871 364.705309 
L 142.636406 370.00176 
L 142.777174 370.00176 
L 142.917942 373.532727 
L 143.058709 366.470792 
L 143.199477 373.532727 
L 143.340244 371.767244 
L 143.62178 371.767244 
L 143.762547 373.532727 
L 143.903315 368.236276 
L 144.044083 373.532727 
L 144.18485 371.767244 
L 144.325618 368.236276 
L 144.466385 371.767244 
L 144.747921 371.767244 
L 144.888688 362.939825 
L 145.029456 371.767244 
L 145.170223 373.532727 
L 145.451759 348.815955 
L 145.592526 373.532727 
L 145.733294 350.581439 
L 145.874061 373.532727 
L 146.014829 370.00176 
L 146.155597 362.939825 
L 146.296364 373.532727 
L 146.437132 371.767244 
L 146.5779 366.470792 
L 146.718667 348.815955 
L 146.859435 373.532727 
L 147.000202 361.174341 
L 147.14097 362.939825 
L 147.281738 371.767244 
L 147.422505 368.236276 
L 147.563273 373.532727 
L 147.70404 361.174341 
L 147.844808 373.532727 
L 147.985576 370.00176 
L 148.126343 373.532727 
L 148.267111 362.939825 
L 148.407879 364.705309 
L 148.548646 368.236276 
L 148.689414 366.470792 
L 148.970949 371.767244 
L 149.252484 364.705309 
L 149.393252 368.236276 
L 149.534019 361.174341 
L 149.674787 364.705309 
L 149.815555 373.532727 
L 149.956322 373.532727 
L 150.09709 364.705309 
L 150.237857 362.939825 
L 150.378625 373.532727 
L 150.519393 373.532727 
L 150.66016 355.87789 
L 150.800928 373.532727 
L 150.941696 361.174341 
L 151.082463 373.532727 
L 151.223231 366.470792 
L 151.363998 368.236276 
L 151.504766 373.532727 
L 151.645534 368.236276 
L 151.927069 373.532727 
L 152.067836 368.236276 
L 152.349372 373.532727 
L 152.490139 371.767244 
L 152.630907 362.939825 
L 152.771674 373.532727 
L 152.912442 373.532727 
L 153.05321 350.581439 
L 153.334745 371.767244 
L 153.475513 355.87789 
L 153.757048 373.532727 
L 153.897815 373.532727 
L 154.038583 359.408858 
L 154.179351 361.174341 
L 154.320118 368.236276 
L 154.460886 368.236276 
L 154.601653 373.532727 
L 154.742421 361.174341 
L 155.164724 373.532727 
L 155.446259 368.236276 
L 155.587027 373.532727 
L 155.727794 371.767244 
L 156.150097 371.767244 
L 156.290865 368.236276 
L 156.431632 299.382411 
L 156.5724 355.87789 
L 156.853935 370.00176 
L 156.994703 371.767244 
L 157.13547 355.87789 
L 157.276238 371.767244 
L 157.698541 359.408858 
L 157.839309 371.767244 
L 157.980076 371.767244 
L 158.120844 373.532727 
L 158.261611 361.174341 
L 158.543147 370.00176 
L 158.683914 370.00176 
L 158.824682 368.236276 
L 158.965449 373.532727 
L 159.106217 370.00176 
L 159.246985 362.939825 
L 159.387752 373.532727 
L 159.52852 370.00176 
L 159.669287 371.767244 
L 159.810055 355.87789 
L 159.950823 371.767244 
L 160.09159 366.470792 
L 160.232358 373.532727 
L 160.373126 361.174341 
L 160.654661 373.532727 
L 160.795428 336.457569 
L 160.936196 366.470792 
L 161.076964 343.519504 
L 161.217731 352.346923 
L 161.358499 368.236276 
L 161.640034 371.767244 
L 161.921569 359.408858 
L 162.062337 368.236276 
L 162.203105 324.099183 
L 162.343872 366.470792 
L 162.48464 364.705309 
L 162.625407 373.532727 
L 162.766175 366.470792 
L 162.906943 368.236276 
L 163.04771 290.554993 
L 163.329245 373.532727 
L 163.470013 332.926602 
L 163.751548 373.532727 
L 163.892316 371.767244 
L 164.033083 368.236276 
L 164.173851 357.643374 
L 164.314619 265.838221 
L 164.455386 370.00176 
L 164.596154 371.767244 
L 164.736922 364.705309 
L 164.877689 368.236276 
L 165.018457 366.470792 
L 165.159224 352.346923 
L 165.299992 361.174341 
L 165.44076 359.408858 
L 165.581527 368.236276 
L 165.722295 359.408858 
L 165.863062 368.236276 
L 166.00383 368.236276 
L 166.285365 373.532727 
L 166.426133 364.705309 
L 166.5669 371.767244 
L 166.707668 371.767244 
L 166.989203 368.236276 
L 167.270739 361.174341 
L 167.693041 373.532727 
L 167.833809 343.519504 
L 168.256112 373.532727 
L 168.396879 355.87789 
L 168.537647 370.00176 
L 168.678415 371.767244 
L 168.95995 366.470792 
L 169.100718 373.532727 
L 169.52302 348.815955 
L 169.663788 348.815955 
L 169.804556 373.532727 
L 169.945323 362.939825 
L 170.086091 371.767244 
L 170.226858 373.532727 
L 170.367626 345.284988 
L 170.508394 371.767244 
L 170.649161 357.643374 
L 170.930696 373.532727 
L 171.071464 364.705309 
L 171.212232 327.630151 
L 171.493767 373.532727 
L 171.634535 364.705309 
L 171.775302 364.705309 
L 172.056837 373.532727 
L 172.197605 361.174341 
L 172.338373 373.532727 
L 172.47914 373.532727 
L 172.619908 350.581439 
L 172.760675 357.643374 
L 172.901443 373.532727 
L 173.042211 366.470792 
L 173.182978 371.767244 
L 173.323746 362.939825 
L 173.605281 370.00176 
L 173.746049 294.08596 
L 173.886816 364.705309 
L 174.027584 347.050472 
L 174.309119 370.00176 
L 174.449887 348.815955 
L 174.590654 355.87789 
L 174.731422 370.00176 
L 174.87219 357.643374 
L 175.012957 364.705309 
L 175.153725 362.939825 
L 175.294492 373.532727 
L 175.43526 348.815955 
L 175.576028 366.470792 
L 175.716795 350.581439 
L 176.279866 373.532727 
L 176.420633 373.532727 
L 176.561401 361.174341 
L 176.702169 370.00176 
L 176.842936 368.236276 
L 176.983704 331.161118 
L 177.124471 361.174341 
L 177.265239 347.050472 
L 177.406007 373.532727 
L 177.546774 370.00176 
L 177.687542 350.581439 
L 177.828309 371.767244 
L 177.969077 370.00176 
L 178.109845 362.939825 
L 178.250612 371.767244 
L 178.532148 368.236276 
L 178.672915 357.643374 
L 178.813683 368.236276 
L 178.95445 352.346923 
L 179.095218 359.408858 
L 179.235986 373.532727 
L 179.376753 373.532727 
L 179.517521 334.692086 
L 179.658288 366.470792 
L 179.799056 359.408858 
L 179.939824 362.939825 
L 180.080591 347.050472 
L 180.221359 373.532727 
L 180.362126 366.470792 
L 180.502894 373.532727 
L 180.643662 370.00176 
L 180.784429 355.87789 
L 181.065965 373.532727 
L 181.206732 341.75402 
L 181.3475 373.532727 
L 181.488267 371.767244 
L 181.629035 361.174341 
L 181.769803 371.767244 
L 182.051338 350.581439 
L 182.192105 373.532727 
L 182.332873 373.532727 
L 182.473641 370.00176 
L 182.755176 347.050472 
L 182.895944 370.00176 
L 183.036711 373.532727 
L 183.177479 373.532727 
L 183.318246 359.408858 
L 183.459014 370.00176 
L 183.599782 359.408858 
L 183.740549 368.236276 
L 183.881317 327.630151 
L 184.30362 373.532727 
L 184.444387 366.470792 
L 184.585155 370.00176 
L 184.725922 350.581439 
L 184.86669 348.815955 
L 185.007458 350.581439 
L 185.148225 348.815955 
L 185.570528 370.00176 
L 185.711296 371.767244 
L 185.852063 368.236276 
L 185.992831 355.87789 
L 186.133599 373.532727 
L 186.274366 373.532727 
L 186.415134 348.815955 
L 186.555901 368.236276 
L 186.696669 371.767244 
L 186.837437 359.408858 
L 187.118972 370.00176 
L 187.259739 364.705309 
L 187.400507 366.470792 
L 187.541275 362.939825 
L 187.682042 366.470792 
L 187.963578 362.939825 
L 188.104345 364.705309 
L 188.245113 373.532727 
L 188.38588 371.767244 
L 188.526648 371.767244 
L 188.667416 345.284988 
L 188.808183 373.532727 
L 188.948951 373.532727 
L 189.089718 364.705309 
L 189.230486 373.532727 
L 189.371254 368.236276 
L 189.512021 355.87789 
L 189.652789 373.532727 
L 189.793557 343.519504 
L 189.934324 370.00176 
L 190.215859 361.174341 
L 190.356627 364.705309 
L 190.638162 350.581439 
L 190.77893 368.236276 
L 190.919697 368.236276 
L 191.201233 311.740797 
L 191.482768 368.236276 
L 191.623535 352.346923 
L 191.764303 373.532727 
L 191.905071 370.00176 
L 192.045838 373.532727 
L 192.186606 327.630151 
L 192.327374 371.767244 
L 192.468141 370.00176 
L 192.608909 371.767244 
L 192.749676 362.939825 
L 192.890444 373.532727 
L 193.031212 373.532727 
L 193.171979 370.00176 
L 193.312747 373.532727 
L 194.016585 373.532727 
L 194.157352 371.767244 
L 194.29812 373.532727 
L 194.579655 373.532727 
L 194.720423 371.767244 
L 194.861191 371.767244 
L 195.001958 370.00176 
L 195.142726 362.939825 
L 195.283493 364.705309 
L 195.424261 320.568216 
L 195.705796 366.470792 
L 195.846564 347.050472 
L 195.987331 370.00176 
L 196.128099 366.470792 
L 196.409634 371.767244 
L 196.69117 350.581439 
L 196.972705 370.00176 
L 197.113472 355.87789 
L 197.25424 373.532727 
L 197.395008 371.767244 
L 197.676543 357.643374 
L 197.81731 373.532727 
L 197.958078 370.00176 
L 198.239613 352.346923 
L 198.380381 354.112406 
L 198.521148 345.284988 
L 198.661916 371.767244 
L 198.802684 364.705309 
L 198.943451 373.532727 
L 199.084219 354.112406 
L 199.224987 373.532727 
L 199.506522 341.75402 
L 199.788057 371.767244 
L 199.928825 278.196607 
L 200.069592 357.643374 
L 200.21036 361.174341 
L 200.351127 355.87789 
L 200.491895 343.519504 
L 200.632663 350.581439 
L 200.77343 366.470792 
L 200.914198 334.692086 
L 201.054965 364.705309 
L 201.336501 347.050472 
L 201.477268 359.408858 
L 201.618036 357.643374 
L 201.758804 370.00176 
L 201.899571 359.408858 
L 202.040339 371.767244 
L 202.181106 357.643374 
L 202.321874 311.740797 
L 202.462642 366.470792 
L 202.603409 357.643374 
L 202.744177 359.408858 
L 202.884944 354.112406 
L 203.025712 343.519504 
L 203.16648 373.532727 
L 203.307247 355.87789 
L 203.448015 359.408858 
L 203.588783 357.643374 
L 203.72955 368.236276 
L 204.011085 309.975314 
L 204.151853 354.112406 
L 204.292621 357.643374 
L 204.433388 357.643374 
L 204.574156 350.581439 
L 204.855691 361.174341 
L 205.137226 350.581439 
L 205.277994 357.643374 
L 205.418761 357.643374 
L 205.559529 370.00176 
L 205.700297 357.643374 
L 205.841064 366.470792 
L 205.981832 359.408858 
L 206.1226 371.767244 
L 206.263367 352.346923 
L 206.404135 359.408858 
L 206.544902 359.408858 
L 206.68567 357.643374 
L 206.826438 366.470792 
L 206.967205 354.112406 
L 207.107973 331.161118 
L 207.389508 371.767244 
L 207.530276 371.767244 
L 207.671043 368.236276 
L 207.811811 324.099183 
L 207.952578 373.532727 
L 208.093346 359.408858 
L 208.234114 368.236276 
L 208.374881 329.395634 
L 208.515649 370.00176 
L 208.656417 355.87789 
L 208.797184 359.408858 
L 208.937952 359.408858 
L 209.078719 339.988537 
L 209.219487 359.408858 
L 209.360255 359.408858 
L 209.501022 262.307253 
L 209.64179 362.939825 
L 209.782557 343.519504 
L 209.923325 357.643374 
L 210.064093 357.643374 
L 210.20486 359.408858 
L 210.345628 357.643374 
L 210.486396 359.408858 
L 210.627163 355.87789 
L 210.767931 370.00176 
L 210.908698 354.112406 
L 211.049466 355.87789 
L 211.190234 359.408858 
L 211.331001 371.767244 
L 211.471769 373.532727 
L 211.612536 373.532727 
L 211.753304 371.767244 
L 211.894072 373.532727 
L 212.034839 373.532727 
L 212.175607 371.767244 
L 212.316374 373.532727 
L 212.457142 373.532727 
L 212.59791 371.767244 
L 212.738677 373.532727 
L 213.301748 373.532727 
L 213.442515 371.767244 
L 213.583283 373.532727 
L 213.724051 373.532727 
L 213.864818 331.161118 
L 214.005586 359.408858 
L 214.146353 315.271765 
L 214.287121 359.408858 
L 214.427889 347.050472 
L 214.568656 350.581439 
L 214.709424 332.926602 
L 214.850191 355.87789 
L 214.990959 359.408858 
L 215.131727 350.581439 
L 215.272494 371.767244 
L 215.55403 355.87789 
L 215.694797 347.050472 
L 215.835565 359.408858 
L 215.976332 331.161118 
L 216.1171 359.408858 
L 216.398635 313.506281 
L 216.539403 347.050472 
L 216.68017 205.811774 
L 216.820938 283.493058 
L 216.961706 274.665639 
L 217.102473 341.75402 
L 217.243241 313.506281 
L 217.384009 355.87789 
L 217.524776 322.3337 
L 217.665544 368.236276 
L 217.806311 276.431123 
L 218.087847 347.050472 
L 218.228614 336.457569 
L 218.369382 352.346923 
L 218.510149 278.196607 
L 218.650917 350.581439 
L 218.791685 359.408858 
L 219.07322 336.457569 
L 219.354755 320.568216 
L 219.495523 322.3337 
L 219.63629 368.236276 
L 219.917826 331.161118 
L 220.058593 329.395634 
L 220.199361 357.643374 
L 220.340128 345.284988 
L 220.480896 350.581439 
L 220.621664 317.037248 
L 220.762431 357.643374 
L 220.903199 311.740797 
L 221.043966 361.174341 
L 221.184734 350.581439 
L 221.325502 359.408858 
L 221.466269 359.408858 
L 221.607037 322.3337 
L 221.747804 359.408858 
L 221.888572 359.408858 
L 222.02934 361.174341 
L 222.170107 341.75402 
L 222.310875 359.408858 
L 222.451643 331.161118 
L 222.59241 359.408858 
L 222.733178 283.493058 
L 222.873945 371.767244 
L 223.014713 373.532727 
L 226.393136 373.532727 
L 226.533903 371.767244 
L 226.674671 373.532727 
L 228.786185 373.532727 
L 228.926953 371.767244 
L 229.06772 373.532727 
L 232.02384 373.532727 
L 232.164608 371.767244 
L 232.446143 308.20983 
L 232.586911 315.271765 
L 232.727678 373.532727 
L 236.528404 373.532727 
L 236.669171 371.767244 
L 236.809939 373.532727 
L 243.566784 373.532727 
L 243.707552 371.767244 
L 243.84832 373.532727 
L 243.989087 373.532727 
L 244.129855 371.767244 
L 244.270622 373.532727 
L 248.071348 373.532727 
L 248.212116 371.767244 
L 248.352883 347.050472 
L 248.493651 359.408858 
L 248.634418 354.112406 
L 248.775186 359.408858 
L 248.915954 355.87789 
L 249.056721 359.408858 
L 249.197489 357.643374 
L 249.338256 359.408858 
L 249.479024 355.87789 
L 249.760559 361.174341 
L 249.901327 334.692086 
L 250.042095 368.236276 
L 250.182862 359.408858 
L 250.32363 359.408858 
L 250.464397 354.112406 
L 250.605165 318.802732 
L 250.745933 359.408858 
L 251.309003 359.408858 
L 251.449771 355.87789 
L 251.590538 339.988537 
L 251.731306 359.408858 
L 251.872073 355.87789 
L 252.012841 359.408858 
L 252.153609 359.408858 
L 252.294376 357.643374 
L 252.435144 373.532727 
L 252.575912 355.87789 
L 252.716679 357.643374 
L 252.857447 355.87789 
L 253.138982 359.408858 
L 253.27975 359.408858 
L 253.420517 339.988537 
L 253.561285 359.408858 
L 253.702052 357.643374 
L 253.84282 359.408858 
L 253.983588 359.408858 
L 254.265123 347.050472 
L 254.405891 359.408858 
L 254.546658 359.408858 
L 254.687426 339.988537 
L 254.828193 339.988537 
L 254.968961 368.236276 
L 255.109729 373.532727 
L 255.250496 359.408858 
L 255.391264 357.643374 
L 255.532031 359.408858 
L 255.813567 359.408858 
L 255.954334 371.767244 
L 256.095102 345.284988 
L 256.376637 359.408858 
L 256.517405 357.643374 
L 256.658172 318.802732 
L 256.79894 359.408858 
L 257.080475 359.408858 
L 257.221243 370.00176 
L 257.36201 371.767244 
L 257.643546 347.050472 
L 257.784313 359.408858 
L 258.347384 359.408858 
L 258.488151 371.767244 
L 258.628919 336.457569 
L 258.769686 357.643374 
L 258.910454 355.87789 
L 259.191989 359.408858 
L 259.332757 371.767244 
L 259.614292 355.87789 
L 259.895827 359.408858 
L 260.31813 359.408858 
L 260.458898 355.87789 
L 260.599665 357.643374 
L 260.740433 355.87789 
L 260.881201 339.988537 
L 261.021968 359.408858 
L 261.162736 357.643374 
L 261.303504 359.408858 
L 261.866574 359.408858 
L 262.007342 322.3337 
L 262.148109 371.767244 
L 262.288877 359.408858 
L 262.429644 359.408858 
L 262.570412 341.75402 
L 262.71118 355.87789 
L 262.851947 350.581439 
L 263.27425 359.408858 
L 263.415018 357.643374 
L 263.555785 359.408858 
L 263.696553 359.408858 
L 263.837321 357.643374 
L 263.978088 359.408858 
L 264.118856 357.643374 
L 264.259623 373.532727 
L 264.541159 354.112406 
L 264.681926 366.470792 
L 264.963461 357.643374 
L 265.104229 359.408858 
L 265.244997 359.408858 
L 265.526532 350.581439 
L 265.667299 359.408858 
L 265.808067 355.87789 
L 265.948835 359.408858 
L 266.089602 357.643374 
L 266.371138 357.643374 
L 266.511905 359.408858 
L 266.652673 357.643374 
L 266.934208 357.643374 
L 267.074976 359.408858 
L 267.215743 373.532727 
L 267.356511 357.643374 
L 267.497278 359.408858 
L 267.778814 359.408858 
L 267.919581 368.236276 
L 268.060349 352.346923 
L 268.341884 359.408858 
L 268.482652 359.408858 
L 268.623419 371.767244 
L 268.764187 357.643374 
L 268.904955 359.408858 
L 269.045722 359.408858 
L 269.18649 357.643374 
L 269.327257 357.643374 
L 269.468025 370.00176 
L 269.608793 359.408858 
L 269.74956 359.408858 
L 269.890328 357.643374 
L 270.031095 359.408858 
L 270.171863 357.643374 
L 270.312631 359.408858 
L 271.157236 359.408858 
L 271.298004 355.87789 
L 271.438772 145.785328 
L 271.579539 370.00176 
L 271.720307 357.643374 
L 271.861074 304.678862 
L 272.001842 359.408858 
L 272.283377 359.408858 
L 272.424145 370.00176 
L 272.564912 354.112406 
L 272.70568 359.408858 
L 272.846448 370.00176 
L 272.987215 357.643374 
L 273.127983 370.00176 
L 273.409518 355.87789 
L 273.550286 359.408858 
L 273.691053 348.815955 
L 273.831821 371.767244 
L 273.972589 357.643374 
L 274.113356 359.408858 
L 274.254124 359.408858 
L 274.394891 357.643374 
L 274.535659 359.408858 
L 274.817194 359.408858 
L 274.957962 357.643374 
L 275.09873 359.408858 
L 275.6618 359.408858 
L 275.802568 357.643374 
L 276.084103 357.643374 
L 276.22487 359.408858 
L 276.365638 357.643374 
L 276.647173 357.643374 
L 276.787941 354.112406 
L 276.928708 359.408858 
L 277.069476 359.408858 
L 277.210244 352.346923 
L 277.351011 354.112406 
L 277.491779 359.408858 
L 277.773314 359.408858 
L 277.914082 341.75402 
L 278.054849 359.408858 
L 278.195617 355.87789 
L 278.336385 336.457569 
L 278.477152 359.408858 
L 278.61792 336.457569 
L 278.758687 359.408858 
L 278.899455 357.643374 
L 279.040223 368.236276 
L 279.18099 359.408858 
L 279.321758 357.643374 
L 279.462525 357.643374 
L 279.603293 359.408858 
L 279.744061 357.643374 
L 280.025596 357.643374 
L 280.166364 336.457569 
L 280.307131 357.643374 
L 280.447899 357.643374 
L 280.588666 359.408858 
L 280.729434 359.408858 
L 280.870202 345.284988 
L 281.010969 359.408858 
L 281.151737 359.408858 
L 281.292504 357.643374 
L 281.433272 357.643374 
L 281.57404 355.87789 
L 281.714807 359.408858 
L 281.855575 359.408858 
L 281.996343 370.00176 
L 282.13711 359.408858 
L 282.277878 359.408858 
L 282.418645 355.87789 
L 282.559413 359.408858 
L 283.122483 359.408858 
L 283.263251 357.643374 
L 283.404019 368.236276 
L 283.544786 368.236276 
L 283.685554 345.284988 
L 283.826321 373.532727 
L 284.248624 373.532727 
L 284.389392 371.767244 
L 284.53016 373.532727 
L 284.670927 373.532727 
L 284.811695 371.767244 
L 284.952462 371.767244 
L 285.09323 373.532727 
L 285.374765 373.532727 
L 285.515533 371.767244 
L 285.6563 373.532727 
L 287.204744 373.532727 
L 287.345512 371.767244 
L 287.486279 373.532727 
L 295.510033 373.532727 
L 295.650801 371.767244 
L 295.791569 373.532727 
L 296.354639 373.532727 
L 296.495407 371.767244 
L 296.636174 354.112406 
L 296.776942 354.112406 
L 296.917709 355.87789 
L 297.058477 359.408858 
L 297.199245 371.767244 
L 297.340012 355.87789 
L 297.48078 359.408858 
L 297.621547 359.408858 
L 297.762315 370.00176 
L 297.903083 359.408858 
L 298.04385 359.408858 
L 298.184618 357.643374 
L 298.325386 359.408858 
L 298.466153 359.408858 
L 298.606921 355.87789 
L 298.747688 359.408858 
L 298.888456 359.408858 
L 299.029224 357.643374 
L 299.169991 359.408858 
L 299.310759 357.643374 
L 299.451526 357.643374 
L 299.592294 355.87789 
L 299.733062 355.87789 
L 300.014597 359.408858 
L 300.155364 339.988537 
L 300.296132 371.767244 
L 300.4369 359.408858 
L 300.577667 357.643374 
L 300.859203 357.643374 
L 300.99997 359.408858 
L 301.140738 350.581439 
L 301.281505 366.470792 
L 301.422273 332.926602 
L 301.563041 373.532727 
L 301.844576 345.284988 
L 302.126111 371.767244 
L 302.266879 359.408858 
L 302.407646 359.408858 
L 302.548414 357.643374 
L 302.689182 350.581439 
L 302.829949 350.581439 
L 302.970717 359.408858 
L 303.111484 355.87789 
L 303.252252 371.767244 
L 303.39302 371.767244 
L 303.533787 345.284988 
L 303.674555 357.643374 
L 303.815322 359.408858 
L 303.95609 357.643374 
L 304.096858 359.408858 
L 304.237625 359.408858 
L 304.378393 357.643374 
L 304.51916 357.643374 
L 304.659928 359.408858 
L 305.082231 359.408858 
L 305.222999 352.346923 
L 305.363766 359.408858 
L 305.504534 359.408858 
L 305.645301 357.643374 
L 305.786069 354.112406 
L 305.926837 357.643374 
L 306.067604 355.87789 
L 306.208372 357.643374 
L 306.349139 373.532727 
L 308.742189 373.532727 
L 308.882956 371.767244 
L 309.023724 371.767244 
L 309.164492 373.532727 
L 312.402147 373.532727 
L 312.542914 371.767244 
L 312.683682 373.532727 
L 312.965217 373.532727 
L 313.105985 371.767244 
L 313.246752 373.532727 
L 313.95059 373.532727 
L 314.091358 371.767244 
L 314.232126 373.532727 
L 320.566668 373.532727 
L 320.707436 371.767244 
L 320.848203 368.236276 
L 320.988971 357.643374 
L 321.270506 357.643374 
L 321.411274 359.408858 
L 321.552042 355.87789 
L 321.692809 359.408858 
L 321.833577 357.643374 
L 321.974344 359.408858 
L 322.115112 355.87789 
L 322.25588 357.643374 
L 322.396647 357.643374 
L 322.537415 359.408858 
L 322.678182 359.408858 
L 322.81895 355.87789 
L 322.959718 359.408858 
L 323.241253 350.581439 
L 323.382021 334.692086 
L 323.522788 373.532727 
L 323.663556 357.643374 
L 323.804323 357.643374 
L 323.945091 352.346923 
L 324.085859 359.408858 
L 324.367394 355.87789 
L 324.508161 359.408858 
L 324.789697 359.408858 
L 324.930464 357.643374 
L 325.071232 359.408858 
L 325.211999 357.643374 
L 325.352767 357.643374 
L 325.493535 359.408858 
L 325.634302 357.643374 
L 325.77507 359.408858 
L 326.197373 359.408858 
L 326.33814 355.87789 
L 326.478908 370.00176 
L 326.619676 357.643374 
L 326.760443 359.408858 
L 326.901211 357.643374 
L 327.041978 357.643374 
L 327.182746 359.408858 
L 327.323514 359.408858 
L 327.464281 355.87789 
L 327.605049 359.408858 
L 327.745816 343.519504 
L 328.027352 371.767244 
L 328.168119 355.87789 
L 328.449655 359.408858 
L 328.590422 359.408858 
L 328.73119 357.643374 
L 328.871957 339.988537 
L 329.012725 359.408858 
L 329.153493 359.408858 
L 329.29426 357.643374 
L 329.435028 359.408858 
L 329.575795 357.643374 
L 329.716563 371.767244 
L 329.857331 43.387273 
L 329.998098 359.408858 
L 330.138866 359.408858 
L 330.279634 357.643374 
L 330.420401 348.815955 
L 330.561169 357.643374 
L 330.701936 357.643374 
L 330.842704 371.767244 
L 331.124239 355.87789 
L 331.265007 357.643374 
L 331.405774 285.258542 
L 331.546542 338.223053 
L 331.68731 339.988537 
L 331.828077 355.87789 
L 331.968845 355.87789 
L 332.109612 357.643374 
L 332.25038 354.112406 
L 332.391148 355.87789 
L 332.531915 371.767244 
L 332.672683 357.643374 
L 332.813451 359.408858 
L 333.094986 359.408858 
L 333.235753 336.457569 
L 333.517289 359.408858 
L 333.658056 324.099183 
L 333.798824 355.87789 
L 333.939591 359.408858 
L 334.080359 334.692086 
L 334.361894 355.87789 
L 334.502662 347.050472 
L 334.643429 359.408858 
L 335.065732 359.408858 
L 335.2065 338.223053 
L 335.347268 357.643374 
L 335.488035 359.408858 
L 335.76957 359.408858 
L 335.910338 370.00176 
L 336.191873 324.099183 
L 336.332641 355.87789 
L 336.473408 355.87789 
L 336.614176 354.112406 
L 336.754944 357.643374 
L 336.895711 352.346923 
L 337.177247 371.767244 
L 337.458782 345.284988 
L 337.599549 359.408858 
L 337.881085 355.87789 
L 338.021852 359.408858 
L 338.16262 359.408858 
L 338.303387 357.643374 
L 338.444155 359.408858 
L 338.584923 357.643374 
L 338.72569 371.767244 
L 338.866458 370.00176 
L 339.007225 359.408858 
L 339.147993 359.408858 
L 339.429528 354.112406 
L 339.570296 359.408858 
L 339.711064 357.643374 
L 339.851831 357.643374 
L 339.992599 355.87789 
L 340.133366 357.643374 
L 340.274134 355.87789 
L 340.414902 355.87789 
L 340.555669 359.408858 
L 340.837204 359.408858 
L 340.977972 354.112406 
L 341.259507 334.692086 
L 341.400275 370.00176 
L 341.541042 355.87789 
L 341.68181 373.532727 
L 344.63793 373.532727 
L 344.778698 371.767244 
L 344.919465 373.532727 
L 346.186374 373.532727 
L 346.186374 373.532727 
" style="fill:none;stroke:#0000ff;stroke-linecap:square;stroke-width:1.5;"/>
   </g>
   <g id="patch_3">
    <path d="M 50.87 390.04 
L 50.87 26.88 
" style="fill:none;stroke:#000000;stroke-linecap:square;stroke-linejoin:miter;stroke-width:0.8;"/>
   </g>
   <g id="patch_4">
    <path d="M 360.249058 390.04 
L 360.249058 26.88 
" style="fill:none;stroke:#000000;stroke-linecap:square;stroke-linejoin:miter;stroke-width:0.8;"/>
   </g>
   <g id="patch_5">
    <path d="M 50.87 390.04 
L 360.249058 390.04 
" style="fill:none;stroke:#000000;stroke-linecap:square;stroke-linejoin:miter;stroke-width:0.8;"/>
   </g>
   <g id="patch_6">
    <path d="M 50.87 26.88 
L 360.249058 26.88 
" style="fill:none;stroke:#000000;stroke-linecap:square;stroke-linejoin:miter;stroke-width:0.8;"/>
   </g>
   <g id="text_20">
    <!-- Episode via steps -->
    <g transform="translate(153.181404 20.88)scale(0.12 -0.12)">
     <defs>
      <path d="M 2.984375 54.6875 
L 12.5 54.6875 
L 29.59375 8.796875 
L 46.6875 54.6875 
L 56.203125 54.6875 
L 35.6875 0 
L 23.484375 0 
z
" id="DejaVuSans-118"/>
      <path d="M 34.28125 27.484375 
Q 23.390625 27.484375 19.1875 25 
Q 14.984375 22.515625 14.984375 16.5 
Q 14.984375 11.71875 18.140625 8.90625 
Q 21.296875 6.109375 26.703125 6.109375 
Q 34.1875 6.109375 38.703125 11.40625 
Q 43.21875 16.703125 43.21875 25.484375 
L 43.21875 27.484375 
z
M 52.203125 31.203125 
L 52.203125 0 
L 43.21875 0 
L 43.21875 8.296875 
Q 40.140625 3.328125 35.546875 0.953125 
Q 30.953125 -1.421875 24.3125 -1.421875 
Q 15.921875 -1.421875 10.953125 3.296875 
Q 6 8.015625 6 15.921875 
Q 6 25.140625 12.171875 29.828125 
Q 18.359375 34.515625 30.609375 34.515625 
L 43.21875 34.515625 
L 43.21875 35.40625 
Q 43.21875 41.609375 39.140625 45 
Q 35.0625 48.390625 27.6875 48.390625 
Q 23 48.390625 18.546875 47.265625 
Q 14.109375 46.140625 10.015625 43.890625 
L 10.015625 52.203125 
Q 14.9375 54.109375 19.578125 55.046875 
Q 24.21875 56 28.609375 56 
Q 40.484375 56 46.34375 49.84375 
Q 52.203125 43.703125 52.203125 31.203125 
z
" id="DejaVuSans-97"/>
     </defs>
     <use xlink:href="#DejaVuSans-69"/>
     <use x="63.183594" xlink:href="#DejaVuSans-112"/>
     <use x="126.660156" xlink:href="#DejaVuSans-105"/>
     <use x="154.443359" xlink:href="#DejaVuSans-115"/>
     <use x="206.542969" xlink:href="#DejaVuSans-111"/>
     <use x="267.724609" xlink:href="#DejaVuSans-100"/>
     <use x="331.201172" xlink:href="#DejaVuSans-101"/>
     <use x="392.724609" xlink:href="#DejaVuSans-32"/>
     <use x="424.511719" xlink:href="#DejaVuSans-118"/>
     <use x="483.691406" xlink:href="#DejaVuSans-105"/>
     <use x="511.474609" xlink:href="#DejaVuSans-97"/>
     <use x="572.753906" xlink:href="#DejaVuSans-32"/>
     <use x="604.541016" xlink:href="#DejaVuSans-115"/>
     <use x="656.640625" xlink:href="#DejaVuSans-116"/>
     <use x="695.849609" xlink:href="#DejaVuSans-101"/>
     <use x="757.373047" xlink:href="#DejaVuSans-112"/>
     <use x="820.849609" xlink:href="#DejaVuSans-115"/>
    </g>
   </g>
  </g>
  <g id="axes_2">
   <g id="patch_7">
    <path d="M 399.820942 390.04 
L 709.2 390.04 
L 709.2 26.88 
L 399.820942 26.88 
z
" style="fill:#ffffff;"/>
   </g>
   <g id="matplotlib.axis_3">
    <g id="xtick_10">
     <g id="line2d_19">
      <g>
       <use style="stroke:#000000;stroke-width:0.8;" x="413.883626" xlink:href="#m1317321d2e" y="390.04"/>
      </g>
     </g>
     <g id="text_21">
      <!-- 0 -->
      <g transform="translate(410.702376 404.638438)scale(0.1 -0.1)">
       <use xlink:href="#DejaVuSans-48"/>
      </g>
     </g>
    </g>
    <g id="xtick_11">
     <g id="line2d_20">
      <g>
       <use style="stroke:#000000;stroke-width:0.8;" x="476.025405" xlink:href="#m1317321d2e" y="390.04"/>
      </g>
     </g>
     <g id="text_22">
      <!-- 500 -->
      <g transform="translate(466.481655 404.638438)scale(0.1 -0.1)">
       <use xlink:href="#DejaVuSans-53"/>
       <use x="63.623047" xlink:href="#DejaVuSans-48"/>
       <use x="127.246094" xlink:href="#DejaVuSans-48"/>
      </g>
     </g>
    </g>
    <g id="xtick_12">
     <g id="line2d_21">
      <g>
       <use style="stroke:#000000;stroke-width:0.8;" x="538.167183" xlink:href="#m1317321d2e" y="390.04"/>
      </g>
     </g>
     <g id="text_23">
      <!-- 1000 -->
      <g transform="translate(525.442183 404.638438)scale(0.1 -0.1)">
       <use xlink:href="#DejaVuSans-49"/>
       <use x="63.623047" xlink:href="#DejaVuSans-48"/>
       <use x="127.246094" xlink:href="#DejaVuSans-48"/>
       <use x="190.869141" xlink:href="#DejaVuSans-48"/>
      </g>
     </g>
    </g>
    <g id="xtick_13">
     <g id="line2d_22">
      <g>
       <use style="stroke:#000000;stroke-width:0.8;" x="600.308962" xlink:href="#m1317321d2e" y="390.04"/>
      </g>
     </g>
     <g id="text_24">
      <!-- 1500 -->
      <g transform="translate(587.583962 404.638438)scale(0.1 -0.1)">
       <use xlink:href="#DejaVuSans-49"/>
       <use x="63.623047" xlink:href="#DejaVuSans-53"/>
       <use x="127.246094" xlink:href="#DejaVuSans-48"/>
       <use x="190.869141" xlink:href="#DejaVuSans-48"/>
      </g>
     </g>
    </g>
    <g id="xtick_14">
     <g id="line2d_23">
      <g>
       <use style="stroke:#000000;stroke-width:0.8;" x="662.45074" xlink:href="#m1317321d2e" y="390.04"/>
      </g>
     </g>
     <g id="text_25">
      <!-- 2000 -->
      <g transform="translate(649.72574 404.638438)scale(0.1 -0.1)">
       <use xlink:href="#DejaVuSans-50"/>
       <use x="63.623047" xlink:href="#DejaVuSans-48"/>
       <use x="127.246094" xlink:href="#DejaVuSans-48"/>
       <use x="190.869141" xlink:href="#DejaVuSans-48"/>
      </g>
     </g>
    </g>
    <g id="text_26">
     <!-- Replace Target Episode -->
     <g transform="translate(496.444065 418.316562)scale(0.1 -0.1)">
      <defs>
       <path d="M 44.390625 34.1875 
Q 47.5625 33.109375 50.5625 29.59375 
Q 53.5625 26.078125 56.59375 19.921875 
L 66.609375 0 
L 56 0 
L 46.6875 18.703125 
Q 43.0625 26.03125 39.671875 28.421875 
Q 36.28125 30.8125 30.421875 30.8125 
L 19.671875 30.8125 
L 19.671875 0 
L 9.8125 0 
L 9.8125 72.90625 
L 32.078125 72.90625 
Q 44.578125 72.90625 50.734375 67.671875 
Q 56.890625 62.453125 56.890625 51.90625 
Q 56.890625 45.015625 53.6875 40.46875 
Q 50.484375 35.9375 44.390625 34.1875 
z
M 19.671875 64.796875 
L 19.671875 38.921875 
L 32.078125 38.921875 
Q 39.203125 38.921875 42.84375 42.21875 
Q 46.484375 45.515625 46.484375 51.90625 
Q 46.484375 58.296875 42.84375 61.546875 
Q 39.203125 64.796875 32.078125 64.796875 
z
" id="DejaVuSans-82"/>
       <path d="M 9.421875 75.984375 
L 18.40625 75.984375 
L 18.40625 0 
L 9.421875 0 
z
" id="DejaVuSans-108"/>
       <path d="M 48.78125 52.59375 
L 48.78125 44.1875 
Q 44.96875 46.296875 41.140625 47.34375 
Q 37.3125 48.390625 33.40625 48.390625 
Q 24.65625 48.390625 19.8125 42.84375 
Q 14.984375 37.3125 14.984375 27.296875 
Q 14.984375 17.28125 19.8125 11.734375 
Q 24.65625 6.203125 33.40625 6.203125 
Q 37.3125 6.203125 41.140625 7.25 
Q 44.96875 8.296875 48.78125 10.40625 
L 48.78125 2.09375 
Q 45.015625 0.34375 40.984375 -0.53125 
Q 36.96875 -1.421875 32.421875 -1.421875 
Q 20.0625 -1.421875 12.78125 6.34375 
Q 5.515625 14.109375 5.515625 27.296875 
Q 5.515625 40.671875 12.859375 48.328125 
Q 20.21875 56 33.015625 56 
Q 37.15625 56 41.109375 55.140625 
Q 45.0625 54.296875 48.78125 52.59375 
z
" id="DejaVuSans-99"/>
       <path d="M -0.296875 72.90625 
L 61.375 72.90625 
L 61.375 64.59375 
L 35.5 64.59375 
L 35.5 0 
L 25.59375 0 
L 25.59375 64.59375 
L -0.296875 64.59375 
z
" id="DejaVuSans-84"/>
       <path d="M 41.109375 46.296875 
Q 39.59375 47.171875 37.8125 47.578125 
Q 36.03125 48 33.890625 48 
Q 26.265625 48 22.1875 43.046875 
Q 18.109375 38.09375 18.109375 28.8125 
L 18.109375 0 
L 9.078125 0 
L 9.078125 54.6875 
L 18.109375 54.6875 
L 18.109375 46.1875 
Q 20.953125 51.171875 25.484375 53.578125 
Q 30.03125 56 36.53125 56 
Q 37.453125 56 38.578125 55.875 
Q 39.703125 55.765625 41.0625 55.515625 
z
" id="DejaVuSans-114"/>
       <path d="M 45.40625 27.984375 
Q 45.40625 37.75 41.375 43.109375 
Q 37.359375 48.484375 30.078125 48.484375 
Q 22.859375 48.484375 18.828125 43.109375 
Q 14.796875 37.75 14.796875 27.984375 
Q 14.796875 18.265625 18.828125 12.890625 
Q 22.859375 7.515625 30.078125 7.515625 
Q 37.359375 7.515625 41.375 12.890625 
Q 45.40625 18.265625 45.40625 27.984375 
z
M 54.390625 6.78125 
Q 54.390625 -7.171875 48.1875 -13.984375 
Q 42 -20.796875 29.203125 -20.796875 
Q 24.46875 -20.796875 20.265625 -20.09375 
Q 16.0625 -19.390625 12.109375 -17.921875 
L 12.109375 -9.1875 
Q 16.0625 -11.328125 19.921875 -12.34375 
Q 23.78125 -13.375 27.78125 -13.375 
Q 36.625 -13.375 41.015625 -8.765625 
Q 45.40625 -4.15625 45.40625 5.171875 
L 45.40625 9.625 
Q 42.625 4.78125 38.28125 2.390625 
Q 33.9375 0 27.875 0 
Q 17.828125 0 11.671875 7.65625 
Q 5.515625 15.328125 5.515625 27.984375 
Q 5.515625 40.671875 11.671875 48.328125 
Q 17.828125 56 27.875 56 
Q 33.9375 56 38.28125 53.609375 
Q 42.625 51.21875 45.40625 46.390625 
L 45.40625 54.6875 
L 54.390625 54.6875 
z
" id="DejaVuSans-103"/>
      </defs>
      <use xlink:href="#DejaVuSans-82"/>
      <use x="64.982422" xlink:href="#DejaVuSans-101"/>
      <use x="126.505859" xlink:href="#DejaVuSans-112"/>
      <use x="189.982422" xlink:href="#DejaVuSans-108"/>
      <use x="217.765625" xlink:href="#DejaVuSans-97"/>
      <use x="279.044922" xlink:href="#DejaVuSans-99"/>
      <use x="334.025391" xlink:href="#DejaVuSans-101"/>
      <use x="395.548828" xlink:href="#DejaVuSans-32"/>
      <use x="427.335938" xlink:href="#DejaVuSans-84"/>
      <use x="471.919922" xlink:href="#DejaVuSans-97"/>
      <use x="533.199219" xlink:href="#DejaVuSans-114"/>
      <use x="572.5625" xlink:href="#DejaVuSans-103"/>
      <use x="636.039062" xlink:href="#DejaVuSans-101"/>
      <use x="697.5625" xlink:href="#DejaVuSans-116"/>
      <use x="736.771484" xlink:href="#DejaVuSans-32"/>
      <use x="768.558594" xlink:href="#DejaVuSans-69"/>
      <use x="831.742188" xlink:href="#DejaVuSans-112"/>
      <use x="895.21875" xlink:href="#DejaVuSans-105"/>
      <use x="923.001953" xlink:href="#DejaVuSans-115"/>
      <use x="975.101562" xlink:href="#DejaVuSans-111"/>
      <use x="1036.283203" xlink:href="#DejaVuSans-100"/>
      <use x="1099.759766" xlink:href="#DejaVuSans-101"/>
     </g>
    </g>
   </g>
   <g id="matplotlib.axis_4">
    <g id="ytick_9">
     <g id="line2d_24">
      <g>
       <use style="stroke:#000000;stroke-width:0.8;" x="399.820942" xlink:href="#mcbdc260c6c" y="373.532727"/>
      </g>
     </g>
     <g id="text_27">
      <!-- 0 -->
      <g transform="translate(386.458442 377.331946)scale(0.1 -0.1)">
       <use xlink:href="#DejaVuSans-48"/>
      </g>
     </g>
    </g>
    <g id="ytick_10">
     <g id="line2d_25">
      <g>
       <use style="stroke:#000000;stroke-width:0.8;" x="399.820942" xlink:href="#mcbdc260c6c" y="308.337941"/>
      </g>
     </g>
     <g id="text_28">
      <!-- 1 -->
      <g transform="translate(386.458442 312.137159)scale(0.1 -0.1)">
       <use xlink:href="#DejaVuSans-49"/>
      </g>
     </g>
    </g>
    <g id="ytick_11">
     <g id="line2d_26">
      <g>
       <use style="stroke:#000000;stroke-width:0.8;" x="399.820942" xlink:href="#mcbdc260c6c" y="243.143154"/>
      </g>
     </g>
     <g id="text_29">
      <!-- 2 -->
      <g transform="translate(386.458442 246.942373)scale(0.1 -0.1)">
       <use xlink:href="#DejaVuSans-50"/>
      </g>
     </g>
    </g>
    <g id="ytick_12">
     <g id="line2d_27">
      <g>
       <use style="stroke:#000000;stroke-width:0.8;" x="399.820942" xlink:href="#mcbdc260c6c" y="177.948367"/>
      </g>
     </g>
     <g id="text_30">
      <!-- 3 -->
      <g transform="translate(386.458442 181.747586)scale(0.1 -0.1)">
       <defs>
        <path d="M 40.578125 39.3125 
Q 47.65625 37.796875 51.625 33 
Q 55.609375 28.21875 55.609375 21.1875 
Q 55.609375 10.40625 48.1875 4.484375 
Q 40.765625 -1.421875 27.09375 -1.421875 
Q 22.515625 -1.421875 17.65625 -0.515625 
Q 12.796875 0.390625 7.625 2.203125 
L 7.625 11.71875 
Q 11.71875 9.328125 16.59375 8.109375 
Q 21.484375 6.890625 26.8125 6.890625 
Q 36.078125 6.890625 40.9375 10.546875 
Q 45.796875 14.203125 45.796875 21.1875 
Q 45.796875 27.640625 41.28125 31.265625 
Q 36.765625 34.90625 28.71875 34.90625 
L 20.21875 34.90625 
L 20.21875 43.015625 
L 29.109375 43.015625 
Q 36.375 43.015625 40.234375 45.921875 
Q 44.09375 48.828125 44.09375 54.296875 
Q 44.09375 59.90625 40.109375 62.90625 
Q 36.140625 65.921875 28.71875 65.921875 
Q 24.65625 65.921875 20.015625 65.03125 
Q 15.375 64.15625 9.8125 62.3125 
L 9.8125 71.09375 
Q 15.4375 72.65625 20.34375 73.4375 
Q 25.25 74.21875 29.59375 74.21875 
Q 40.828125 74.21875 47.359375 69.109375 
Q 53.90625 64.015625 53.90625 55.328125 
Q 53.90625 49.265625 50.4375 45.09375 
Q 46.96875 40.921875 40.578125 39.3125 
z
" id="DejaVuSans-51"/>
       </defs>
       <use xlink:href="#DejaVuSans-51"/>
      </g>
     </g>
    </g>
    <g id="ytick_13">
     <g id="line2d_28">
      <g>
       <use style="stroke:#000000;stroke-width:0.8;" x="399.820942" xlink:href="#mcbdc260c6c" y="112.75358"/>
      </g>
     </g>
     <g id="text_31">
      <!-- 4 -->
      <g transform="translate(386.458442 116.552799)scale(0.1 -0.1)">
       <defs>
        <path d="M 37.796875 64.3125 
L 12.890625 25.390625 
L 37.796875 25.390625 
z
M 35.203125 72.90625 
L 47.609375 72.90625 
L 47.609375 25.390625 
L 58.015625 25.390625 
L 58.015625 17.1875 
L 47.609375 17.1875 
L 47.609375 0 
L 37.796875 0 
L 37.796875 17.1875 
L 4.890625 17.1875 
L 4.890625 26.703125 
z
" id="DejaVuSans-52"/>
       </defs>
       <use xlink:href="#DejaVuSans-52"/>
      </g>
     </g>
    </g>
    <g id="ytick_14">
     <g id="line2d_29">
      <g>
       <use style="stroke:#000000;stroke-width:0.8;" x="399.820942" xlink:href="#mcbdc260c6c" y="47.558794"/>
      </g>
     </g>
     <g id="text_32">
      <!-- 5 -->
      <g transform="translate(386.458442 51.358013)scale(0.1 -0.1)">
       <use xlink:href="#DejaVuSans-53"/>
      </g>
     </g>
    </g>
    <g id="text_33">
     <!-- Cost -->
     <g transform="translate(380.378754 219.575625)rotate(-90)scale(0.1 -0.1)">
      <defs>
       <path d="M 64.40625 67.28125 
L 64.40625 56.890625 
Q 59.421875 61.53125 53.78125 63.8125 
Q 48.140625 66.109375 41.796875 66.109375 
Q 29.296875 66.109375 22.65625 58.46875 
Q 16.015625 50.828125 16.015625 36.375 
Q 16.015625 21.96875 22.65625 14.328125 
Q 29.296875 6.6875 41.796875 6.6875 
Q 48.140625 6.6875 53.78125 8.984375 
Q 59.421875 11.28125 64.40625 15.921875 
L 64.40625 5.609375 
Q 59.234375 2.09375 53.4375 0.328125 
Q 47.65625 -1.421875 41.21875 -1.421875 
Q 24.65625 -1.421875 15.125 8.703125 
Q 5.609375 18.84375 5.609375 36.375 
Q 5.609375 53.953125 15.125 64.078125 
Q 24.65625 74.21875 41.21875 74.21875 
Q 47.75 74.21875 53.53125 72.484375 
Q 59.328125 70.75 64.40625 67.28125 
z
" id="DejaVuSans-67"/>
      </defs>
      <use xlink:href="#DejaVuSans-67"/>
      <use x="69.824219" xlink:href="#DejaVuSans-111"/>
      <use x="131.005859" xlink:href="#DejaVuSans-115"/>
      <use x="183.105469" xlink:href="#DejaVuSans-116"/>
     </g>
    </g>
    <g id="text_34">
     <!-- 1e6 -->
     <g transform="translate(399.820942 23.88)scale(0.1 -0.1)">
      <defs>
       <path d="M 33.015625 40.375 
Q 26.375 40.375 22.484375 35.828125 
Q 18.609375 31.296875 18.609375 23.390625 
Q 18.609375 15.53125 22.484375 10.953125 
Q 26.375 6.390625 33.015625 6.390625 
Q 39.65625 6.390625 43.53125 10.953125 
Q 47.40625 15.53125 47.40625 23.390625 
Q 47.40625 31.296875 43.53125 35.828125 
Q 39.65625 40.375 33.015625 40.375 
z
M 52.59375 71.296875 
L 52.59375 62.3125 
Q 48.875 64.0625 45.09375 64.984375 
Q 41.3125 65.921875 37.59375 65.921875 
Q 27.828125 65.921875 22.671875 59.328125 
Q 17.53125 52.734375 16.796875 39.40625 
Q 19.671875 43.65625 24.015625 45.921875 
Q 28.375 48.1875 33.59375 48.1875 
Q 44.578125 48.1875 50.953125 41.515625 
Q 57.328125 34.859375 57.328125 23.390625 
Q 57.328125 12.15625 50.6875 5.359375 
Q 44.046875 -1.421875 33.015625 -1.421875 
Q 20.359375 -1.421875 13.671875 8.265625 
Q 6.984375 17.96875 6.984375 36.375 
Q 6.984375 53.65625 15.1875 63.9375 
Q 23.390625 74.21875 37.203125 74.21875 
Q 40.921875 74.21875 44.703125 73.484375 
Q 48.484375 72.75 52.59375 71.296875 
z
" id="DejaVuSans-54"/>
      </defs>
      <use xlink:href="#DejaVuSans-49"/>
      <use x="63.623047" xlink:href="#DejaVuSans-101"/>
      <use x="125.146484" xlink:href="#DejaVuSans-54"/>
     </g>
    </g>
   </g>
   <g id="line2d_30">
    <path clip-path="url(#p1dd5f77812)" d="M 413.883626 373.532726 
L 414.00791 43.387273 
L 414.132193 373.531151 
L 414.380761 373.491542 
L 414.753611 373.532725 
L 695.137316 373.532727 
L 695.137316 373.532727 
" style="fill:none;stroke:#ff0000;stroke-linecap:square;stroke-width:1.5;"/>
   </g>
   <g id="patch_8">
    <path d="M 399.820942 390.04 
L 399.820942 26.88 
" style="fill:none;stroke:#000000;stroke-linecap:square;stroke-linejoin:miter;stroke-width:0.8;"/>
   </g>
   <g id="patch_9">
    <path d="M 709.2 390.04 
L 709.2 26.88 
" style="fill:none;stroke:#000000;stroke-linecap:square;stroke-linejoin:miter;stroke-width:0.8;"/>
   </g>
   <g id="patch_10">
    <path d="M 399.820942 390.04 
L 709.2 390.04 
" style="fill:none;stroke:#000000;stroke-linecap:square;stroke-linejoin:miter;stroke-width:0.8;"/>
   </g>
   <g id="patch_11">
    <path d="M 399.820942 26.88 
L 709.2 26.88 
" style="fill:none;stroke:#000000;stroke-linecap:square;stroke-linejoin:miter;stroke-width:0.8;"/>
   </g>
   <g id="text_35">
    <!-- Episode via cost -->
    <g transform="translate(505.788596 20.88)scale(0.12 -0.12)">
     <use xlink:href="#DejaVuSans-69"/>
     <use x="63.183594" xlink:href="#DejaVuSans-112"/>
     <use x="126.660156" xlink:href="#DejaVuSans-105"/>
     <use x="154.443359" xlink:href="#DejaVuSans-115"/>
     <use x="206.542969" xlink:href="#DejaVuSans-111"/>
     <use x="267.724609" xlink:href="#DejaVuSans-100"/>
     <use x="331.201172" xlink:href="#DejaVuSans-101"/>
     <use x="392.724609" xlink:href="#DejaVuSans-32"/>
     <use x="424.511719" xlink:href="#DejaVuSans-118"/>
     <use x="483.691406" xlink:href="#DejaVuSans-105"/>
     <use x="511.474609" xlink:href="#DejaVuSans-97"/>
     <use x="572.753906" xlink:href="#DejaVuSans-32"/>
     <use x="604.541016" xlink:href="#DejaVuSans-99"/>
     <use x="659.521484" xlink:href="#DejaVuSans-111"/>
     <use x="720.703125" xlink:href="#DejaVuSans-115"/>
     <use x="772.802734" xlink:href="#DejaVuSans-116"/>
    </g>
   </g>
  </g>
 </g>
 <defs>
  <clipPath id="p9be4950341">
   <rect height="363.16" width="309.379058" x="50.87" y="26.88"/>
  </clipPath>
  <clipPath id="p1dd5f77812">
   <rect height="363.16" width="309.379058" x="399.820942" y="26.88"/>
  </clipPath>
 </defs>
</svg>
