<?xml version="1.0" encoding="utf-8" standalone="no"?>
<!DOCTYPE svg PUBLIC "-//W3C//DTD SVG 1.1//EN"
  "http://www.w3.org/Graphics/SVG/1.1/DTD/svg11.dtd">
<!-- Created with matplotlib (https://matplotlib.org/) -->
<svg height="432pt" version="1.1" viewBox="0 0 576 432" width="576pt" xmlns="http://www.w3.org/2000/svg" xmlns:xlink="http://www.w3.org/1999/xlink">
 <metadata>
  <rdf:RDF xmlns:cc="http://creativecommons.org/ns#" xmlns:dc="http://purl.org/dc/elements/1.1/" xmlns:rdf="http://www.w3.org/1999/02/22-rdf-syntax-ns#">
   <cc:Work>
    <dc:type rdf:resource="http://purl.org/dc/dcmitype/StillImage"/>
    <dc:date>2023-04-12T10:34:19.686771</dc:date>
    <dc:format>image/svg+xml</dc:format>
    <dc:creator>
     <cc:Agent>
      <dc:title>Matplotlib v3.3.4, https://matplotlib.org/</dc:title>
     </cc:Agent>
    </dc:creator>
   </cc:Work>
  </rdf:RDF>
 </metadata>
 <defs>
  <style type="text/css">*{stroke-linecap:butt;stroke-linejoin:round;}</style>
 </defs>
 <g id="figure_1">
  <g id="patch_1">
   <path d="M 0 432 
L 576 432 
L 576 0 
L 0 0 
z
" style="fill:#ffffff;"/>
  </g>
  <g id="axes_1">
   <g id="patch_2">
    <path d="M 72 384.48 
L 518.4 384.48 
L 518.4 51.84 
L 72 51.84 
z
" style="fill:#ffffff;"/>
   </g>
   <g id="matplotlib.axis_1">
    <g id="xtick_1">
     <g id="line2d_1">
      <defs>
       <path d="M 0 0 
L 0 3.5 
" id="m56b1ae325f" style="stroke:#000000;stroke-width:0.8;"/>
      </defs>
      <g>
       <use style="stroke:#000000;stroke-width:0.8;" x="92.290909" xlink:href="#m56b1ae325f" y="384.48"/>
      </g>
     </g>
     <g id="text_1">
      <!-- 0 -->
      <g transform="translate(89.109659 399.078438)scale(0.1 -0.1)">
       <defs>
        <path d="M 31.78125 66.40625 
Q 24.171875 66.40625 20.328125 58.90625 
Q 16.5 51.421875 16.5 36.375 
Q 16.5 21.390625 20.328125 13.890625 
Q 24.171875 6.390625 31.78125 6.390625 
Q 39.453125 6.390625 43.28125 13.890625 
Q 47.125 21.390625 47.125 36.375 
Q 47.125 51.421875 43.28125 58.90625 
Q 39.453125 66.40625 31.78125 66.40625 
z
M 31.78125 74.21875 
Q 44.046875 74.21875 50.515625 64.515625 
Q 56.984375 54.828125 56.984375 36.375 
Q 56.984375 17.96875 50.515625 8.265625 
Q 44.046875 -1.421875 31.78125 -1.421875 
Q 19.53125 -1.421875 13.0625 8.265625 
Q 6.59375 17.96875 6.59375 36.375 
Q 6.59375 54.828125 13.0625 64.515625 
Q 19.53125 74.21875 31.78125 74.21875 
z
" id="DejaVuSans-48"/>
       </defs>
       <use xlink:href="#DejaVuSans-48"/>
      </g>
     </g>
    </g>
    <g id="xtick_2">
     <g id="line2d_2">
      <g>
       <use style="stroke:#000000;stroke-width:0.8;" x="153.128655" xlink:href="#m56b1ae325f" y="384.48"/>
      </g>
     </g>
     <g id="text_2">
      <!-- 2000 -->
      <g transform="translate(140.403655 399.078438)scale(0.1 -0.1)">
       <defs>
        <path d="M 19.1875 8.296875 
L 53.609375 8.296875 
L 53.609375 0 
L 7.328125 0 
L 7.328125 8.296875 
Q 12.9375 14.109375 22.625 23.890625 
Q 32.328125 33.6875 34.8125 36.53125 
Q 39.546875 41.84375 41.421875 45.53125 
Q 43.3125 49.21875 43.3125 52.78125 
Q 43.3125 58.59375 39.234375 62.25 
Q 35.15625 65.921875 28.609375 65.921875 
Q 23.96875 65.921875 18.8125 64.3125 
Q 13.671875 62.703125 7.8125 59.421875 
L 7.8125 69.390625 
Q 13.765625 71.78125 18.9375 73 
Q 24.125 74.21875 28.421875 74.21875 
Q 39.75 74.21875 46.484375 68.546875 
Q 53.21875 62.890625 53.21875 53.421875 
Q 53.21875 48.921875 51.53125 44.890625 
Q 49.859375 40.875 45.40625 35.40625 
Q 44.1875 33.984375 37.640625 27.21875 
Q 31.109375 20.453125 19.1875 8.296875 
z
" id="DejaVuSans-50"/>
       </defs>
       <use xlink:href="#DejaVuSans-50"/>
       <use x="63.623047" xlink:href="#DejaVuSans-48"/>
       <use x="127.246094" xlink:href="#DejaVuSans-48"/>
       <use x="190.869141" xlink:href="#DejaVuSans-48"/>
      </g>
     </g>
    </g>
    <g id="xtick_3">
     <g id="line2d_3">
      <g>
       <use style="stroke:#000000;stroke-width:0.8;" x="213.9664" xlink:href="#m56b1ae325f" y="384.48"/>
      </g>
     </g>
     <g id="text_3">
      <!-- 4000 -->
      <g transform="translate(201.2414 399.078438)scale(0.1 -0.1)">
       <defs>
        <path d="M 37.796875 64.3125 
L 12.890625 25.390625 
L 37.796875 25.390625 
z
M 35.203125 72.90625 
L 47.609375 72.90625 
L 47.609375 25.390625 
L 58.015625 25.390625 
L 58.015625 17.1875 
L 47.609375 17.1875 
L 47.609375 0 
L 37.796875 0 
L 37.796875 17.1875 
L 4.890625 17.1875 
L 4.890625 26.703125 
z
" id="DejaVuSans-52"/>
       </defs>
       <use xlink:href="#DejaVuSans-52"/>
       <use x="63.623047" xlink:href="#DejaVuSans-48"/>
       <use x="127.246094" xlink:href="#DejaVuSans-48"/>
       <use x="190.869141" xlink:href="#DejaVuSans-48"/>
      </g>
     </g>
    </g>
    <g id="xtick_4">
     <g id="line2d_4">
      <g>
       <use style="stroke:#000000;stroke-width:0.8;" x="274.804146" xlink:href="#m56b1ae325f" y="384.48"/>
      </g>
     </g>
     <g id="text_4">
      <!-- 6000 -->
      <g transform="translate(262.079146 399.078438)scale(0.1 -0.1)">
       <defs>
        <path d="M 33.015625 40.375 
Q 26.375 40.375 22.484375 35.828125 
Q 18.609375 31.296875 18.609375 23.390625 
Q 18.609375 15.53125 22.484375 10.953125 
Q 26.375 6.390625 33.015625 6.390625 
Q 39.65625 6.390625 43.53125 10.953125 
Q 47.40625 15.53125 47.40625 23.390625 
Q 47.40625 31.296875 43.53125 35.828125 
Q 39.65625 40.375 33.015625 40.375 
z
M 52.59375 71.296875 
L 52.59375 62.3125 
Q 48.875 64.0625 45.09375 64.984375 
Q 41.3125 65.921875 37.59375 65.921875 
Q 27.828125 65.921875 22.671875 59.328125 
Q 17.53125 52.734375 16.796875 39.40625 
Q 19.671875 43.65625 24.015625 45.921875 
Q 28.375 48.1875 33.59375 48.1875 
Q 44.578125 48.1875 50.953125 41.515625 
Q 57.328125 34.859375 57.328125 23.390625 
Q 57.328125 12.15625 50.6875 5.359375 
Q 44.046875 -1.421875 33.015625 -1.421875 
Q 20.359375 -1.421875 13.671875 8.265625 
Q 6.984375 17.96875 6.984375 36.375 
Q 6.984375 53.65625 15.1875 63.9375 
Q 23.390625 74.21875 37.203125 74.21875 
Q 40.921875 74.21875 44.703125 73.484375 
Q 48.484375 72.75 52.59375 71.296875 
z
" id="DejaVuSans-54"/>
       </defs>
       <use xlink:href="#DejaVuSans-54"/>
       <use x="63.623047" xlink:href="#DejaVuSans-48"/>
       <use x="127.246094" xlink:href="#DejaVuSans-48"/>
       <use x="190.869141" xlink:href="#DejaVuSans-48"/>
      </g>
     </g>
    </g>
    <g id="xtick_5">
     <g id="line2d_5">
      <g>
       <use style="stroke:#000000;stroke-width:0.8;" x="335.641891" xlink:href="#m56b1ae325f" y="384.48"/>
      </g>
     </g>
     <g id="text_5">
      <!-- 8000 -->
      <g transform="translate(322.916891 399.078438)scale(0.1 -0.1)">
       <defs>
        <path d="M 31.78125 34.625 
Q 24.75 34.625 20.71875 30.859375 
Q 16.703125 27.09375 16.703125 20.515625 
Q 16.703125 13.921875 20.71875 10.15625 
Q 24.75 6.390625 31.78125 6.390625 
Q 38.8125 6.390625 42.859375 10.171875 
Q 46.921875 13.96875 46.921875 20.515625 
Q 46.921875 27.09375 42.890625 30.859375 
Q 38.875 34.625 31.78125 34.625 
z
M 21.921875 38.8125 
Q 15.578125 40.375 12.03125 44.71875 
Q 8.5 49.078125 8.5 55.328125 
Q 8.5 64.0625 14.71875 69.140625 
Q 20.953125 74.21875 31.78125 74.21875 
Q 42.671875 74.21875 48.875 69.140625 
Q 55.078125 64.0625 55.078125 55.328125 
Q 55.078125 49.078125 51.53125 44.71875 
Q 48 40.375 41.703125 38.8125 
Q 48.828125 37.15625 52.796875 32.3125 
Q 56.78125 27.484375 56.78125 20.515625 
Q 56.78125 9.90625 50.3125 4.234375 
Q 43.84375 -1.421875 31.78125 -1.421875 
Q 19.734375 -1.421875 13.25 4.234375 
Q 6.78125 9.90625 6.78125 20.515625 
Q 6.78125 27.484375 10.78125 32.3125 
Q 14.796875 37.15625 21.921875 38.8125 
z
M 18.3125 54.390625 
Q 18.3125 48.734375 21.84375 45.5625 
Q 25.390625 42.390625 31.78125 42.390625 
Q 38.140625 42.390625 41.71875 45.5625 
Q 45.3125 48.734375 45.3125 54.390625 
Q 45.3125 60.0625 41.71875 63.234375 
Q 38.140625 66.40625 31.78125 66.40625 
Q 25.390625 66.40625 21.84375 63.234375 
Q 18.3125 60.0625 18.3125 54.390625 
z
" id="DejaVuSans-56"/>
       </defs>
       <use xlink:href="#DejaVuSans-56"/>
       <use x="63.623047" xlink:href="#DejaVuSans-48"/>
       <use x="127.246094" xlink:href="#DejaVuSans-48"/>
       <use x="190.869141" xlink:href="#DejaVuSans-48"/>
      </g>
     </g>
    </g>
    <g id="xtick_6">
     <g id="line2d_6">
      <g>
       <use style="stroke:#000000;stroke-width:0.8;" x="396.479637" xlink:href="#m56b1ae325f" y="384.48"/>
      </g>
     </g>
     <g id="text_6">
      <!-- 10000 -->
      <g transform="translate(380.573387 399.078438)scale(0.1 -0.1)">
       <defs>
        <path d="M 12.40625 8.296875 
L 28.515625 8.296875 
L 28.515625 63.921875 
L 10.984375 60.40625 
L 10.984375 69.390625 
L 28.421875 72.90625 
L 38.28125 72.90625 
L 38.28125 8.296875 
L 54.390625 8.296875 
L 54.390625 0 
L 12.40625 0 
z
" id="DejaVuSans-49"/>
       </defs>
       <use xlink:href="#DejaVuSans-49"/>
       <use x="63.623047" xlink:href="#DejaVuSans-48"/>
       <use x="127.246094" xlink:href="#DejaVuSans-48"/>
       <use x="190.869141" xlink:href="#DejaVuSans-48"/>
       <use x="254.492188" xlink:href="#DejaVuSans-48"/>
      </g>
     </g>
    </g>
    <g id="xtick_7">
     <g id="line2d_7">
      <g>
       <use style="stroke:#000000;stroke-width:0.8;" x="457.317383" xlink:href="#m56b1ae325f" y="384.48"/>
      </g>
     </g>
     <g id="text_7">
      <!-- 12000 -->
      <g transform="translate(441.411133 399.078438)scale(0.1 -0.1)">
       <use xlink:href="#DejaVuSans-49"/>
       <use x="63.623047" xlink:href="#DejaVuSans-50"/>
       <use x="127.246094" xlink:href="#DejaVuSans-48"/>
       <use x="190.869141" xlink:href="#DejaVuSans-48"/>
       <use x="254.492188" xlink:href="#DejaVuSans-48"/>
      </g>
     </g>
    </g>
    <g id="xtick_8">
     <g id="line2d_8">
      <g>
       <use style="stroke:#000000;stroke-width:0.8;" x="518.155128" xlink:href="#m56b1ae325f" y="384.48"/>
      </g>
     </g>
     <g id="text_8">
      <!-- 14000 -->
      <g transform="translate(502.248878 399.078438)scale(0.1 -0.1)">
       <use xlink:href="#DejaVuSans-49"/>
       <use x="63.623047" xlink:href="#DejaVuSans-52"/>
       <use x="127.246094" xlink:href="#DejaVuSans-48"/>
       <use x="190.869141" xlink:href="#DejaVuSans-48"/>
       <use x="254.492188" xlink:href="#DejaVuSans-48"/>
      </g>
     </g>
    </g>
   </g>
   <g id="matplotlib.axis_2">
    <g id="ytick_1">
     <g id="line2d_9">
      <defs>
       <path d="M 0 0 
L -3.5 0 
" id="m6b57f484be" style="stroke:#000000;stroke-width:0.8;"/>
      </defs>
      <g>
       <use style="stroke:#000000;stroke-width:0.8;" x="72" xlink:href="#m6b57f484be" y="369.36"/>
      </g>
     </g>
     <g id="text_9">
      <!-- 0.0 -->
      <g transform="translate(49.096875 373.159219)scale(0.1 -0.1)">
       <defs>
        <path d="M 10.6875 12.40625 
L 21 12.40625 
L 21 0 
L 10.6875 0 
z
" id="DejaVuSans-46"/>
       </defs>
       <use xlink:href="#DejaVuSans-48"/>
       <use x="63.623047" xlink:href="#DejaVuSans-46"/>
       <use x="95.410156" xlink:href="#DejaVuSans-48"/>
      </g>
     </g>
    </g>
    <g id="ytick_2">
     <g id="line2d_10">
      <g>
       <use style="stroke:#000000;stroke-width:0.8;" x="72" xlink:href="#m6b57f484be" y="302.16"/>
      </g>
     </g>
     <g id="text_10">
      <!-- 0.2 -->
      <g transform="translate(49.096875 305.959219)scale(0.1 -0.1)">
       <use xlink:href="#DejaVuSans-48"/>
       <use x="63.623047" xlink:href="#DejaVuSans-46"/>
       <use x="95.410156" xlink:href="#DejaVuSans-50"/>
      </g>
     </g>
    </g>
    <g id="ytick_3">
     <g id="line2d_11">
      <g>
       <use style="stroke:#000000;stroke-width:0.8;" x="72" xlink:href="#m6b57f484be" y="234.96"/>
      </g>
     </g>
     <g id="text_11">
      <!-- 0.4 -->
      <g transform="translate(49.096875 238.759219)scale(0.1 -0.1)">
       <use xlink:href="#DejaVuSans-48"/>
       <use x="63.623047" xlink:href="#DejaVuSans-46"/>
       <use x="95.410156" xlink:href="#DejaVuSans-52"/>
      </g>
     </g>
    </g>
    <g id="ytick_4">
     <g id="line2d_12">
      <g>
       <use style="stroke:#000000;stroke-width:0.8;" x="72" xlink:href="#m6b57f484be" y="167.76"/>
      </g>
     </g>
     <g id="text_12">
      <!-- 0.6 -->
      <g transform="translate(49.096875 171.559219)scale(0.1 -0.1)">
       <use xlink:href="#DejaVuSans-48"/>
       <use x="63.623047" xlink:href="#DejaVuSans-46"/>
       <use x="95.410156" xlink:href="#DejaVuSans-54"/>
      </g>
     </g>
    </g>
    <g id="ytick_5">
     <g id="line2d_13">
      <g>
       <use style="stroke:#000000;stroke-width:0.8;" x="72" xlink:href="#m6b57f484be" y="100.56"/>
      </g>
     </g>
     <g id="text_13">
      <!-- 0.8 -->
      <g transform="translate(49.096875 104.359219)scale(0.1 -0.1)">
       <use xlink:href="#DejaVuSans-48"/>
       <use x="63.623047" xlink:href="#DejaVuSans-46"/>
       <use x="95.410156" xlink:href="#DejaVuSans-56"/>
      </g>
     </g>
    </g>
   </g>
   <g id="line2d_14">
    <path clip-path="url(#pe8b1633900)" d="M 92.290909 369.36 
L 140.900268 369.36 
L 141.021943 369.024 
L 141.052362 369.024 
L 141.174038 368.688 
L 141.265294 368.688 
L 141.38697 368.352 
L 141.508645 368.352 
L 141.721577 367.008 
L 141.782415 367.008 
L 141.904091 366.672 
L 141.964928 366.672 
L 142.086604 366.336 
L 142.147442 366.336 
L 142.299536 365.664 
L 142.329955 365.664 
L 142.45163 365.328 
L 142.573306 365.328 
L 142.694981 364.992 
L 142.755819 364.992 
L 142.877495 364.656 
L 142.938332 364.656 
L 143.060008 364.32 
L 143.090427 364.32 
L 143.242521 363.648 
L 143.27294 363.648 
L 143.394615 363.312 
L 143.425034 363.312 
L 143.54671 362.976 
L 143.637966 362.976 
L 143.759642 362.64 
L 143.82048 362.64 
L 144.002993 361.632 
L 144.033412 361.632 
L 144.155087 361.296 
L 144.215925 361.296 
L 144.3376 360.96 
L 144.428857 360.96 
L 144.550533 360.624 
L 144.580951 360.624 
L 144.702627 360.288 
L 144.733046 360.288 
L 144.854721 359.952 
L 144.88514 359.952 
L 145.006816 359.616 
L 145.037234 359.616 
L 145.15891 359.28 
L 145.219748 359.28 
L 145.341423 358.944 
L 145.43268 358.944 
L 145.584774 358.272 
L 145.70645 358.272 
L 145.828125 357.936 
L 145.919382 357.936 
L 146.162733 356.256 
L 146.253989 356.256 
L 146.375665 355.92 
L 146.466922 355.92 
L 146.588597 355.584 
L 146.619016 355.584 
L 146.740691 355.248 
L 146.831948 355.248 
L 146.953623 354.912 
L 147.04488 354.912 
L 147.166556 354.576 
L 147.227393 354.576 
L 147.349069 354.24 
L 147.440325 354.24 
L 147.562001 353.904 
L 147.622839 353.904 
L 147.744514 353.568 
L 147.805352 353.568 
L 147.927027 353.232 
L 147.987865 353.232 
L 148.109541 352.896 
L 148.170378 352.896 
L 148.352892 351.888 
L 148.413729 351.888 
L 148.535405 351.552 
L 148.596243 351.552 
L 148.717918 351.216 
L 148.778756 351.216 
L 148.900431 350.88 
L 148.93085 350.88 
L 149.082945 350.208 
L 149.235039 350.208 
L 149.356714 349.872 
L 149.417552 349.872 
L 149.539228 349.536 
L 149.600065 349.536 
L 149.721741 349.2 
L 149.782579 349.2 
L 149.904254 348.864 
L 150.056349 348.864 
L 150.178024 348.528 
L 150.269281 348.528 
L 150.390956 348.192 
L 150.482213 348.192 
L 150.603888 347.856 
L 150.664726 347.856 
L 150.786401 347.52 
L 150.908077 347.52 
L 151.029752 347.184 
L 151.060171 347.184 
L 151.181847 346.848 
L 151.242685 346.848 
L 151.394779 346.176 
L 151.425198 346.176 
L 151.577292 345.504 
L 151.607711 345.504 
L 151.790224 344.496 
L 151.851062 344.496 
L 152.003156 343.824 
L 152.094413 343.824 
L 152.216088 343.488 
L 152.368183 343.488 
L 152.489858 343.152 
L 152.550696 343.152 
L 152.672372 342.816 
L 152.733209 342.816 
L 152.854885 342.48 
L 152.885304 342.48 
L 153.006979 342.144 
L 153.037398 342.144 
L 153.159074 341.808 
L 153.189492 341.808 
L 153.311168 341.472 
L 153.341587 341.472 
L 153.463262 341.136 
L 153.493681 341.136 
L 153.615357 340.8 
L 153.645775 340.8 
L 153.767451 340.464 
L 153.828289 340.464 
L 153.949964 340.128 
L 154.07164 340.128 
L 154.223734 339.456 
L 154.284572 339.456 
L 154.436666 338.784 
L 154.497504 338.784 
L 154.619179 338.448 
L 154.710436 338.448 
L 154.832112 338.112 
L 154.892949 338.112 
L 155.045044 337.44 
L 155.105881 337.44 
L 155.227557 337.104 
L 155.288395 337.104 
L 155.41007 336.768 
L 155.470908 336.768 
L 155.592583 336.432 
L 155.623002 336.432 
L 155.744678 336.096 
L 155.805515 336.096 
L 155.927191 335.76 
L 156.140123 335.76 
L 156.261799 335.424 
L 156.413893 335.424 
L 156.535568 335.088 
L 156.657244 335.088 
L 156.778919 334.752 
L 156.809338 334.752 
L 156.931014 334.416 
L 156.961433 334.416 
L 157.083108 334.08 
L 157.113527 334.08 
L 157.235202 333.744 
L 157.326459 333.744 
L 157.448135 333.408 
L 157.600229 333.408 
L 157.721904 333.072 
L 157.813161 333.072 
L 157.934837 332.736 
L 158.086931 332.736 
L 158.208606 332.4 
L 158.299863 332.4 
L 158.421539 332.064 
L 158.512795 332.064 
L 158.634471 331.728 
L 158.725727 331.728 
L 158.847403 331.392 
L 158.90824 331.392 
L 159.029916 331.056 
L 159.060335 331.056 
L 159.18201 330.72 
L 159.212429 330.72 
L 159.334105 330.384 
L 159.364524 330.384 
L 159.486199 330.048 
L 159.516618 330.048 
L 159.638293 329.712 
L 159.668712 329.712 
L 159.790388 329.376 
L 159.820807 329.376 
L 159.942482 329.04 
L 159.972901 329.04 
L 160.094577 328.704 
L 160.185833 328.704 
L 160.307509 328.368 
L 160.337928 328.368 
L 160.459603 328.032 
L 160.490022 328.032 
L 160.611697 327.696 
L 160.642116 327.696 
L 160.763792 327.36 
L 160.824629 327.36 
L 160.946305 327.024 
L 161.007143 327.024 
L 161.128818 326.688 
L 161.250494 326.688 
L 161.372169 326.352 
L 161.493845 326.352 
L 161.61552 326.016 
L 161.645939 326.016 
L 161.767615 325.68 
L 161.828452 325.68 
L 161.980547 325.008 
L 162.071803 325.008 
L 162.193479 324.672 
L 162.254316 324.672 
L 162.375992 324.336 
L 162.467249 324.336 
L 162.588924 324 
L 162.7106 324 
L 162.832275 323.664 
L 162.984369 323.664 
L 163.166883 322.656 
L 163.288558 322.656 
L 163.410234 322.32 
L 163.531909 322.32 
L 163.684004 321.648 
L 163.714422 321.648 
L 163.836098 321.312 
L 163.957773 321.312 
L 164.079449 320.976 
L 164.140287 320.976 
L 164.261962 320.64 
L 164.292381 320.64 
L 164.414056 320.304 
L 164.444475 320.304 
L 164.566151 319.968 
L 164.657407 319.968 
L 164.779083 319.632 
L 164.809502 319.632 
L 164.931177 319.296 
L 164.961596 319.296 
L 165.144109 318.288 
L 165.204947 318.288 
L 165.326623 317.952 
L 165.448298 317.952 
L 165.569974 317.616 
L 165.630811 317.616 
L 165.752487 317.28 
L 165.782906 317.28 
L 165.904581 316.944 
L 165.935 316.944 
L 166.056676 316.608 
L 166.147932 316.608 
L 166.269608 316.272 
L 166.330445 316.272 
L 166.452121 315.936 
L 166.48254 315.936 
L 166.634634 315.264 
L 166.75631 315.264 
L 166.877985 314.928 
L 166.908404 314.928 
L 167.03008 314.592 
L 167.182174 314.592 
L 167.303849 314.256 
L 167.364687 314.256 
L 167.486363 313.92 
L 167.5472 313.92 
L 167.668876 313.584 
L 167.729714 313.584 
L 167.851389 313.248 
L 167.973065 313.248 
L 168.09474 312.912 
L 168.155578 312.912 
L 168.277253 312.576 
L 168.338091 312.576 
L 168.490185 311.904 
L 168.520604 311.904 
L 168.64228 311.568 
L 168.703118 311.568 
L 168.824793 311.232 
L 168.946469 311.232 
L 169.068144 310.896 
L 169.128982 310.896 
L 169.250657 310.56 
L 169.372333 310.56 
L 169.494008 310.224 
L 169.524427 310.224 
L 169.646103 309.888 
L 169.737359 309.888 
L 169.859035 309.552 
L 169.889454 309.552 
L 170.071967 308.544 
L 170.132805 308.544 
L 170.25448 308.208 
L 170.345737 308.208 
L 170.497831 307.536 
L 170.619507 307.536 
L 170.80202 306.528 
L 170.862857 306.528 
L 170.984533 306.192 
L 171.106208 306.192 
L 171.227884 305.856 
L 171.258303 305.856 
L 171.379978 305.52 
L 171.410397 305.52 
L 171.562492 304.848 
L 171.623329 304.848 
L 171.775424 304.176 
L 171.805843 304.176 
L 171.927518 303.84 
L 171.957937 303.84 
L 172.110031 303.168 
L 172.231707 303.168 
L 172.353382 302.832 
L 172.383801 302.832 
L 172.505477 302.496 
L 172.566314 302.496 
L 172.68799 302.16 
L 172.748828 302.16 
L 172.870503 301.824 
L 172.992179 301.824 
L 173.113854 301.488 
L 173.144273 301.488 
L 173.265948 301.152 
L 173.326786 301.152 
L 173.478881 300.48 
L 173.600556 300.48 
L 173.722232 300.144 
L 173.904745 300.144 
L 174.056839 299.472 
L 174.117677 299.472 
L 174.239352 299.136 
L 174.269771 299.136 
L 174.391447 298.8 
L 174.421866 298.8 
L 174.543541 298.464 
L 174.57396 298.464 
L 174.695635 298.128 
L 174.726054 298.128 
L 174.84773 297.792 
L 174.878149 297.792 
L 174.999824 297.456 
L 175.030243 297.456 
L 175.151919 297.12 
L 175.182337 297.12 
L 175.304013 296.784 
L 175.334432 296.784 
L 175.486526 296.112 
L 175.516945 296.112 
L 175.638621 295.776 
L 175.669039 295.776 
L 175.821134 295.104 
L 175.881972 295.104 
L 176.003647 294.768 
L 176.094904 294.768 
L 176.216579 294.432 
L 176.246998 294.432 
L 176.368673 294.096 
L 176.45993 294.096 
L 176.581606 293.76 
L 176.642443 293.76 
L 176.764119 293.424 
L 176.824957 293.424 
L 176.946632 293.088 
L 176.977051 293.088 
L 177.129145 292.416 
L 177.250821 292.416 
L 177.372496 292.08 
L 177.433334 292.08 
L 177.55501 291.744 
L 177.615847 291.744 
L 177.767942 291.072 
L 177.828779 291.072 
L 178.011293 290.064 
L 178.07213 290.064 
L 178.193806 289.728 
L 178.285062 289.728 
L 178.437157 289.056 
L 178.497995 289.056 
L 178.61967 288.72 
L 178.650089 288.72 
L 178.771764 288.384 
L 178.863021 288.384 
L 178.984697 288.048 
L 179.075953 288.048 
L 179.197629 287.712 
L 179.258466 287.712 
L 179.380142 287.376 
L 179.471398 287.376 
L 179.593074 287.04 
L 179.623493 287.04 
L 179.745168 286.704 
L 179.775587 286.704 
L 179.897263 286.368 
L 179.927682 286.368 
L 180.049357 286.032 
L 180.110195 286.032 
L 180.23187 285.696 
L 180.292708 285.696 
L 180.414384 285.36 
L 180.444802 285.36 
L 180.566478 285.024 
L 180.596897 285.024 
L 180.718572 284.688 
L 180.77941 284.688 
L 180.901086 284.352 
L 180.931504 284.352 
L 181.05318 284.016 
L 181.083599 284.016 
L 181.235693 283.344 
L 181.296531 283.344 
L 181.448625 282.672 
L 181.509463 282.672 
L 181.661557 282 
L 181.691976 282 
L 181.813652 281.664 
L 181.874489 281.664 
L 181.996165 281.328 
L 182.057003 281.328 
L 182.178678 280.992 
L 182.209097 280.992 
L 182.330773 280.656 
L 182.361191 280.656 
L 182.482867 280.32 
L 182.513286 280.32 
L 182.634961 279.984 
L 182.66538 279.984 
L 182.787056 279.648 
L 182.847893 279.648 
L 182.969569 279.312 
L 183.030407 279.312 
L 183.152082 278.976 
L 183.243339 278.976 
L 183.365014 278.64 
L 183.425852 278.64 
L 183.577946 277.968 
L 183.608365 277.968 
L 183.730041 277.632 
L 183.76046 277.632 
L 183.882135 277.296 
L 183.912554 277.296 
L 184.034229 276.96 
L 184.064648 276.96 
L 184.186324 276.624 
L 184.216743 276.624 
L 184.338418 276.288 
L 184.368837 276.288 
L 184.490513 275.952 
L 184.520931 275.952 
L 184.642607 275.616 
L 184.673026 275.616 
L 184.794701 275.28 
L 184.82512 275.28 
L 184.946796 274.944 
L 185.007633 274.944 
L 185.129309 274.608 
L 185.159728 274.608 
L 185.281403 274.272 
L 185.37266 274.272 
L 185.494335 273.936 
L 185.524754 273.936 
L 185.64643 273.6 
L 185.676849 273.6 
L 185.798524 273.264 
L 185.828943 273.264 
L 185.950618 272.928 
L 186.011456 272.928 
L 186.133132 272.592 
L 186.163551 272.592 
L 186.285226 272.256 
L 186.406901 272.256 
L 186.528577 271.92 
L 186.589415 271.92 
L 186.71109 271.584 
L 186.741509 271.584 
L 186.863185 271.248 
L 186.924022 271.248 
L 187.045698 270.912 
L 187.076117 270.912 
L 187.197792 270.576 
L 187.228211 270.576 
L 187.349887 270.24 
L 187.380305 270.24 
L 187.501981 269.904 
L 187.5324 269.904 
L 187.654075 269.568 
L 187.684494 269.568 
L 187.80617 269.232 
L 187.836589 269.232 
L 187.958264 268.896 
L 187.988683 268.896 
L 188.110358 268.56 
L 188.140777 268.56 
L 188.262453 268.224 
L 188.292872 268.224 
L 188.414547 267.888 
L 188.444966 267.888 
L 188.566641 267.552 
L 188.59706 267.552 
L 188.718736 267.216 
L 188.809992 267.216 
L 188.962087 266.544 
L 188.992506 266.544 
L 189.1446 265.872 
L 189.205438 265.872 
L 189.327113 265.536 
L 189.387951 265.536 
L 189.509627 265.2 
L 189.540045 265.2 
L 189.661721 264.864 
L 189.722559 264.864 
L 189.844234 264.528 
L 189.874653 264.528 
L 189.996328 264.192 
L 190.057166 264.192 
L 190.178842 263.856 
L 190.239679 263.856 
L 190.361355 263.52 
L 190.422193 263.52 
L 190.543868 263.184 
L 190.574287 263.184 
L 190.726381 262.512 
L 190.787219 262.512 
L 190.908895 262.176 
L 191.03057 262.176 
L 191.152246 261.84 
L 191.273921 261.84 
L 191.395597 261.504 
L 191.486853 261.504 
L 191.608529 261.168 
L 191.669366 261.168 
L 191.791042 260.832 
L 191.821461 260.832 
L 191.943136 260.496 
L 192.003974 260.496 
L 192.156068 259.824 
L 192.247325 259.824 
L 192.369001 259.488 
L 192.399419 259.488 
L 192.521095 259.152 
L 192.551514 259.152 
L 192.673189 258.816 
L 192.734027 258.816 
L 192.855703 258.48 
L 192.886121 258.48 
L 193.007797 258.144 
L 193.068635 258.144 
L 193.19031 257.808 
L 193.281567 257.808 
L 193.403242 257.472 
L 193.433661 257.472 
L 193.555337 257.136 
L 193.616174 257.136 
L 193.768269 256.464 
L 193.859525 256.464 
L 193.981201 256.128 
L 194.072457 256.128 
L 194.194133 255.792 
L 194.254971 255.792 
L 194.376646 255.456 
L 194.407065 255.456 
L 194.528741 255.12 
L 194.559159 255.12 
L 194.711254 254.448 
L 194.741673 254.448 
L 194.863348 254.112 
L 194.893767 254.112 
L 195.015442 253.776 
L 195.07628 253.776 
L 195.197956 253.44 
L 195.228375 253.44 
L 195.35005 253.104 
L 195.380469 253.104 
L 195.502144 252.768 
L 195.593401 252.768 
L 195.715077 252.432 
L 195.775914 252.432 
L 195.958428 251.424 
L 195.988846 251.424 
L 196.110522 251.088 
L 196.140941 251.088 
L 196.262616 250.752 
L 196.293035 250.752 
L 196.414711 250.416 
L 196.505967 250.416 
L 196.627643 250.08 
L 196.658062 250.08 
L 196.779737 249.744 
L 196.840575 249.744 
L 197.023088 248.736 
L 197.053507 248.736 
L 197.205601 248.064 
L 197.23602 248.064 
L 197.357696 247.728 
L 197.388115 247.728 
L 197.50979 247.392 
L 197.540209 247.392 
L 197.661884 247.056 
L 197.692303 247.056 
L 197.813979 246.72 
L 197.844398 246.72 
L 197.966073 246.384 
L 198.026911 246.384 
L 198.148586 246.048 
L 198.179005 246.048 
L 198.361518 245.04 
L 198.391937 245.04 
L 198.544032 244.368 
L 198.574451 244.368 
L 198.726545 243.696 
L 198.817802 243.696 
L 198.939477 243.36 
L 199.061153 243.36 
L 199.182828 243.024 
L 199.213247 243.024 
L 199.334922 242.688 
L 199.365341 242.688 
L 199.487017 242.352 
L 199.547855 242.352 
L 199.66953 242.016 
L 199.699949 242.016 
L 199.882462 241.008 
L 199.9433 241.008 
L 200.095394 240.336 
L 200.125813 240.336 
L 200.247489 240 
L 200.308326 240 
L 200.460421 239.328 
L 200.521258 239.328 
L 200.642934 238.992 
L 200.673353 238.992 
L 200.795028 238.656 
L 200.825447 238.656 
L 200.947123 238.32 
L 200.977542 238.32 
L 201.099217 237.984 
L 201.129636 237.984 
L 201.251311 237.648 
L 201.28173 237.648 
L 201.403406 237.312 
L 201.433825 237.312 
L 201.5555 236.976 
L 201.585919 236.976 
L 201.707594 236.64 
L 201.738013 236.64 
L 201.859689 236.304 
L 201.920527 236.304 
L 202.042202 235.968 
L 202.10304 235.968 
L 202.224715 235.632 
L 202.255134 235.632 
L 202.37681 235.296 
L 202.407229 235.296 
L 202.528904 234.96 
L 202.589742 234.96 
L 202.711417 234.624 
L 202.772255 234.624 
L 202.924349 233.952 
L 202.954768 233.952 
L 203.076444 233.616 
L 203.106863 233.616 
L 203.228538 233.28 
L 203.289376 233.28 
L 203.411051 232.944 
L 203.44147 232.944 
L 203.563146 232.608 
L 203.623983 232.608 
L 203.745659 232.272 
L 203.806497 232.272 
L 203.928172 231.936 
L 203.958591 231.936 
L 204.110685 231.264 
L 204.141104 231.264 
L 204.293199 230.592 
L 204.323618 230.592 
L 204.445293 230.256 
L 204.53655 230.256 
L 204.658225 229.92 
L 204.688644 229.92 
L 204.81032 229.584 
L 204.840738 229.584 
L 204.992833 228.912 
L 205.053671 228.912 
L 205.175346 228.576 
L 205.205765 228.576 
L 205.32744 228.24 
L 205.357859 228.24 
L 205.479535 227.904 
L 205.540372 227.904 
L 205.662048 227.568 
L 205.692467 227.568 
L 205.814142 227.232 
L 205.87498 227.232 
L 205.996656 226.896 
L 206.14875 226.896 
L 206.270425 226.56 
L 206.331263 226.56 
L 206.452939 226.224 
L 206.544195 226.224 
L 206.665871 225.888 
L 206.69629 225.888 
L 206.817965 225.552 
L 206.848384 225.552 
L 206.970059 225.216 
L 207.000478 225.216 
L 207.122154 224.88 
L 207.152573 224.88 
L 207.274248 224.544 
L 207.335086 224.544 
L 207.456761 224.208 
L 207.48718 224.208 
L 207.639275 223.536 
L 207.669694 223.536 
L 207.791369 223.2 
L 207.821788 223.2 
L 207.943463 222.864 
L 207.973882 222.864 
L 208.156396 221.856 
L 208.217233 221.856 
L 208.338909 221.52 
L 208.369328 221.52 
L 208.491003 221.184 
L 208.521422 221.184 
L 208.673516 220.512 
L 208.764773 220.512 
L 208.886448 220.176 
L 208.947286 220.176 
L 209.099381 219.504 
L 209.160218 219.504 
L 209.312313 218.832 
L 209.342732 218.832 
L 209.464407 218.496 
L 209.525245 218.496 
L 209.64692 218.16 
L 209.707758 218.16 
L 209.829434 217.824 
L 209.859852 217.824 
L 209.981528 217.488 
L 210.042366 217.488 
L 210.164041 217.152 
L 210.19446 217.152 
L 210.316135 216.816 
L 210.437811 216.816 
L 210.559486 216.48 
L 210.589905 216.48 
L 210.711581 216.144 
L 210.742 216.144 
L 210.863675 215.808 
L 210.894094 215.808 
L 211.01577 215.472 
L 211.076607 215.472 
L 211.198283 215.136 
L 211.259121 215.136 
L 211.380796 214.8 
L 211.411215 214.8 
L 211.53289 214.464 
L 211.593728 214.464 
L 211.715404 214.128 
L 211.776241 214.128 
L 211.897917 213.792 
L 211.928336 213.792 
L 212.050011 213.456 
L 212.08043 213.456 
L 212.202106 213.12 
L 212.293362 213.12 
L 212.415038 212.784 
L 212.536713 212.784 
L 212.658389 212.448 
L 212.688808 212.448 
L 212.810483 212.112 
L 212.871321 212.112 
L 212.992996 211.776 
L 213.084253 211.776 
L 213.205928 211.44 
L 213.236347 211.44 
L 213.358023 211.104 
L 213.388442 211.104 
L 213.510117 210.768 
L 213.540536 210.768 
L 213.662212 210.432 
L 213.783887 210.432 
L 213.905562 210.096 
L 213.935981 210.096 
L 214.088076 209.424 
L 214.148913 209.424 
L 214.270589 209.088 
L 214.331427 209.088 
L 214.453102 208.752 
L 214.483521 208.752 
L 214.605197 208.416 
L 214.635615 208.416 
L 214.757291 208.08 
L 214.909385 208.08 
L 215.031061 207.744 
L 215.06148 207.744 
L 215.183155 207.408 
L 215.243993 207.408 
L 215.365668 207.072 
L 215.396087 207.072 
L 215.517763 206.736 
L 215.548182 206.736 
L 215.669857 206.4 
L 215.730695 206.4 
L 215.943627 205.056 
L 215.974046 205.056 
L 216.095721 204.72 
L 216.156559 204.72 
L 216.308653 204.048 
L 216.339072 204.048 
L 216.460748 203.712 
L 216.521586 203.712 
L 216.643261 203.376 
L 216.704099 203.376 
L 216.825774 203.04 
L 216.856193 203.04 
L 216.977869 202.704 
L 217.008288 202.704 
L 217.129963 202.368 
L 217.160382 202.368 
L 217.282057 202.032 
L 217.312476 202.032 
L 217.434152 201.696 
L 217.494989 201.696 
L 217.616665 201.36 
L 217.647084 201.36 
L 217.768759 201.024 
L 217.799178 201.024 
L 217.920854 200.688 
L 217.981691 200.688 
L 218.103367 200.352 
L 218.194624 200.352 
L 218.316299 200.016 
L 218.407556 200.016 
L 218.529231 199.68 
L 218.55965 199.68 
L 218.681326 199.344 
L 218.711744 199.344 
L 218.83342 199.008 
L 218.894258 199.008 
L 219.015933 198.672 
L 219.046352 198.672 
L 219.168027 198.336 
L 219.198446 198.336 
L 219.320122 198 
L 219.38096 198 
L 219.502635 197.664 
L 219.533054 197.664 
L 219.654729 197.328 
L 219.715567 197.328 
L 219.837243 196.992 
L 219.867662 196.992 
L 219.989337 196.656 
L 220.019756 196.656 
L 220.141431 196.32 
L 220.202269 196.32 
L 220.323945 195.984 
L 220.354364 195.984 
L 220.476039 195.648 
L 220.536877 195.648 
L 220.658552 195.312 
L 220.780228 195.312 
L 220.901903 194.976 
L 220.962741 194.976 
L 221.084416 194.64 
L 221.114835 194.64 
L 221.236511 194.304 
L 221.358186 194.304 
L 221.479862 193.968 
L 221.510281 193.968 
L 221.631956 193.632 
L 221.662375 193.632 
L 221.784051 193.296 
L 221.875307 193.296 
L 222.027402 192.624 
L 222.05782 192.624 
L 222.179496 192.288 
L 222.240334 192.288 
L 222.362009 191.952 
L 222.453266 191.952 
L 222.574941 191.616 
L 222.635779 191.616 
L 222.757454 191.28 
L 222.818292 191.28 
L 222.939968 190.944 
L 223.000805 190.944 
L 223.122481 190.608 
L 223.183319 190.608 
L 223.304994 190.272 
L 223.365832 190.272 
L 223.487507 189.936 
L 223.548345 189.936 
L 223.670021 189.6 
L 223.761277 189.6 
L 223.913372 188.928 
L 223.974209 188.928 
L 224.095885 188.592 
L 224.126304 188.592 
L 224.247979 188.256 
L 224.278398 188.256 
L 224.400074 187.92 
L 224.521749 187.92 
L 224.643425 187.584 
L 224.734681 187.584 
L 224.886776 186.912 
L 224.917194 186.912 
L 225.03887 186.576 
L 225.069289 186.576 
L 225.251802 185.568 
L 225.282221 185.568 
L 225.403896 185.232 
L 225.434315 185.232 
L 225.555991 184.896 
L 225.58641 184.896 
L 225.708085 184.56 
L 225.799342 184.56 
L 225.921017 184.224 
L 225.981855 184.224 
L 226.10353 183.888 
L 226.133949 183.888 
L 226.286044 183.216 
L 226.316463 183.216 
L 226.468557 182.544 
L 226.498976 182.544 
L 226.620651 182.208 
L 226.681489 182.208 
L 226.803165 181.872 
L 226.833583 181.872 
L 226.955259 181.536 
L 226.985678 181.536 
L 227.107353 181.2 
L 227.19861 181.2 
L 227.320285 180.864 
L 227.381123 180.864 
L 227.502799 180.528 
L 227.533217 180.528 
L 227.654893 180.192 
L 227.685312 180.192 
L 227.806987 179.856 
L 227.867825 179.856 
L 227.989501 179.52 
L 228.019919 179.52 
L 228.141595 179.184 
L 228.172014 179.184 
L 228.293689 178.848 
L 228.324108 178.848 
L 228.445784 178.512 
L 228.476203 178.512 
L 228.597878 178.176 
L 228.628297 178.176 
L 228.749972 177.84 
L 228.780391 177.84 
L 228.902067 177.504 
L 228.962905 177.504 
L 229.08458 177.168 
L 229.114999 177.168 
L 229.236674 176.832 
L 229.297512 176.832 
L 229.419188 176.496 
L 229.480025 176.496 
L 229.601701 176.16 
L 229.63212 176.16 
L 229.753795 175.824 
L 229.845052 175.824 
L 230.027565 174.816 
L 230.057984 174.816 
L 230.179659 174.48 
L 230.210078 174.48 
L 230.331754 174.144 
L 230.362173 174.144 
L 230.483848 173.808 
L 230.514267 173.808 
L 230.635943 173.472 
L 230.666361 173.472 
L 230.788037 173.136 
L 230.909712 173.136 
L 231.061807 172.464 
L 231.092226 172.464 
L 231.213901 172.128 
L 231.670184 172.128 
L 231.822279 171.456 
L 231.913535 171.456 
L 232.035211 171.12 
L 232.096048 171.12 
L 232.217724 170.784 
L 232.278562 170.784 
L 232.400237 170.448 
L 232.430656 170.448 
L 232.552332 170.112 
L 232.58275 170.112 
L 232.704426 169.776 
L 232.734845 169.776 
L 232.85652 169.44 
L 232.886939 169.44 
L 233.008615 169.104 
L 233.039033 169.104 
L 233.160709 168.768 
L 233.221547 168.768 
L 233.343222 168.432 
L 233.373641 168.432 
L 233.495317 168.096 
L 233.556154 168.096 
L 233.67783 167.76 
L 233.738668 167.76 
L 233.860343 167.424 
L 233.890762 167.424 
L 234.012437 167.088 
L 234.042856 167.088 
L 234.164532 166.752 
L 234.255788 166.752 
L 234.377464 166.416 
L 234.438302 166.416 
L 234.590396 165.744 
L 234.651234 165.744 
L 234.772909 165.408 
L 234.833747 165.408 
L 234.955422 165.072 
L 234.985841 165.072 
L 235.107517 164.736 
L 235.137936 164.736 
L 235.259611 164.4 
L 235.320449 164.4 
L 235.442124 164.064 
L 235.533381 164.064 
L 235.655057 163.728 
L 235.685475 163.728 
L 235.807151 163.392 
L 235.928826 163.392 
L 236.050502 163.056 
L 236.11134 163.056 
L 236.233015 162.72 
L 236.263434 162.72 
L 236.385109 162.384 
L 236.506785 162.384 
L 236.62846 162.048 
L 236.658879 162.048 
L 236.780555 161.712 
L 236.841393 161.712 
L 236.963068 161.376 
L 236.993487 161.376 
L 237.115162 161.04 
L 237.145581 161.04 
L 237.267257 160.704 
L 237.328095 160.704 
L 237.44977 160.368 
L 237.480189 160.368 
L 237.601864 160.032 
L 237.662702 160.032 
L 237.784378 159.696 
L 237.814796 159.696 
L 237.936472 159.36 
L 237.966891 159.36 
L 238.088566 159.024 
L 238.179823 159.024 
L 238.301498 158.688 
L 238.392755 158.688 
L 238.514431 158.352 
L 238.544849 158.352 
L 238.666525 158.016 
L 238.696944 158.016 
L 238.849038 157.344 
L 238.879457 157.344 
L 239.001133 157.008 
L 239.031551 157.008 
L 239.153227 156.672 
L 239.183646 156.672 
L 239.305321 156.336 
L 239.33574 156.336 
L 239.457416 156 
L 239.487834 156 
L 239.60951 155.664 
L 239.639929 155.664 
L 239.761604 155.328 
L 239.792023 155.328 
L 239.913699 154.992 
L 239.944118 154.992 
L 240.065793 154.656 
L 240.096212 154.656 
L 240.217887 154.32 
L 240.248306 154.32 
L 240.369982 153.984 
L 240.400401 153.984 
L 240.522076 153.648 
L 240.552495 153.648 
L 240.674171 153.312 
L 240.704589 153.312 
L 240.826265 152.976 
L 240.856684 152.976 
L 240.978359 152.64 
L 241.008778 152.64 
L 241.130454 152.304 
L 241.160872 152.304 
L 241.282548 151.968 
L 241.312967 151.968 
L 241.434642 151.632 
L 241.465061 151.632 
L 241.586737 151.296 
L 241.617156 151.296 
L 241.738831 150.96 
L 241.76925 150.96 
L 241.890925 150.624 
L 241.921344 150.624 
L 242.04302 150.288 
L 242.073439 150.288 
L 242.195114 149.952 
L 242.225533 149.952 
L 242.347209 149.616 
L 242.377627 149.616 
L 242.499303 149.28 
L 242.529722 149.28 
L 242.651397 148.944 
L 242.681816 148.944 
L 242.803492 148.608 
L 242.833911 148.608 
L 242.955586 148.272 
L 242.986005 148.272 
L 243.10768 147.936 
L 243.138099 147.936 
L 243.259775 147.6 
L 243.290194 147.6 
L 243.411869 147.264 
L 243.442288 147.264 
L 243.563963 146.928 
L 243.594382 146.928 
L 243.716058 146.592 
L 243.746477 146.592 
L 243.868152 146.256 
L 243.898571 146.256 
L 244.020247 145.92 
L 244.050665 145.92 
L 244.172341 145.584 
L 244.20276 145.584 
L 244.324435 145.248 
L 244.354854 145.248 
L 244.47653 144.912 
L 244.506949 144.912 
L 244.628624 144.576 
L 244.659043 144.576 
L 244.780718 144.24 
L 244.811137 144.24 
L 244.932813 143.904 
L 244.963232 143.904 
L 245.084907 143.568 
L 245.115326 143.568 
L 245.237001 143.232 
L 245.26742 143.232 
L 245.389096 142.896 
L 245.419515 142.896 
L 245.54119 142.56 
L 245.571609 142.56 
L 245.693285 142.224 
L 245.723703 142.224 
L 245.845379 141.888 
L 245.875798 141.888 
L 245.997473 141.552 
L 246.027892 141.552 
L 246.149568 141.216 
L 246.179987 141.216 
L 246.301662 140.88 
L 246.332081 140.88 
L 246.453756 140.544 
L 246.484175 140.544 
L 246.605851 140.208 
L 246.63627 140.208 
L 246.757945 139.872 
L 246.788364 139.872 
L 246.910039 139.536 
L 246.940458 139.536 
L 247.062134 139.2 
L 247.092553 139.2 
L 247.214228 138.864 
L 247.244647 138.864 
L 247.366323 138.528 
L 247.396741 138.528 
L 247.518417 138.192 
L 247.548836 138.192 
L 247.670511 137.856 
L 247.70093 137.856 
L 247.822606 137.52 
L 247.853025 137.52 
L 247.9747 137.184 
L 248.005119 137.184 
L 248.126794 136.848 
L 248.157213 136.848 
L 248.278889 136.512 
L 248.309308 136.512 
L 248.430983 136.176 
L 248.461402 136.176 
L 248.583077 135.84 
L 248.613496 135.84 
L 248.735172 135.504 
L 248.765591 135.504 
L 248.887266 135.168 
L 248.917685 135.168 
L 249.039361 134.832 
L 249.069779 134.832 
L 249.191455 134.496 
L 249.221874 134.496 
L 249.343549 134.16 
L 249.373968 134.16 
L 249.495644 133.824 
L 249.526063 133.824 
L 249.647738 133.488 
L 249.678157 133.488 
L 249.799832 133.152 
L 249.830251 133.152 
L 249.951927 132.816 
L 249.982346 132.816 
L 250.104021 132.48 
L 250.13444 132.48 
L 250.256115 132.144 
L 250.286534 132.144 
L 250.40821 131.808 
L 250.438629 131.808 
L 250.560304 131.472 
L 250.590723 131.472 
L 250.712399 131.136 
L 250.742817 131.136 
L 250.864493 130.8 
L 250.894912 130.8 
L 251.016587 130.464 
L 251.047006 130.464 
L 251.168682 130.128 
L 251.199101 130.128 
L 251.320776 129.792 
L 251.351195 129.792 
L 251.47287 129.456 
L 251.503289 129.456 
L 251.624965 129.12 
L 251.655384 129.12 
L 251.777059 128.784 
L 251.807478 128.784 
L 251.929153 128.448 
L 251.959572 128.448 
L 252.081248 128.112 
L 252.111667 128.112 
L 252.233342 127.776 
L 252.263761 127.776 
L 252.385437 127.44 
L 252.415855 127.44 
L 252.537531 127.104 
L 252.56795 127.104 
L 252.689625 126.768 
L 252.720044 126.768 
L 252.84172 126.432 
L 252.872139 126.432 
L 252.993814 126.096 
L 253.024233 126.096 
L 253.145908 125.76 
L 253.176327 125.76 
L 253.298003 125.424 
L 253.328422 125.424 
L 253.450097 125.088 
L 253.480516 125.088 
L 253.602191 124.752 
L 253.63261 124.752 
L 253.754286 124.416 
L 253.784705 124.416 
L 253.90638 124.08 
L 253.936799 124.08 
L 254.058475 123.744 
L 254.149731 123.744 
L 254.271407 123.408 
L 254.301826 123.408 
L 254.423501 123.072 
L 254.484339 123.072 
L 254.606014 122.736 
L 254.636433 122.736 
L 254.758109 122.4 
L 254.788528 122.4 
L 254.910203 122.064 
L 254.940622 122.064 
L 255.062297 121.728 
L 255.123135 121.728 
L 255.244811 121.392 
L 255.336067 121.392 
L 255.457743 121.056 
L 255.488162 121.056 
L 255.609837 120.72 
L 255.640256 120.72 
L 255.761931 120.384 
L 255.79235 120.384 
L 255.914026 120.048 
L 255.944445 120.048 
L 256.06612 119.712 
L 256.096539 119.712 
L 256.218215 119.376 
L 256.248633 119.376 
L 256.370309 119.04 
L 256.400728 119.04 
L 256.522403 118.704 
L 256.552822 118.704 
L 256.674498 118.368 
L 256.704916 118.368 
L 256.826592 118.032 
L 256.857011 118.032 
L 256.978686 117.696 
L 257.039524 117.696 
L 257.1612 117.36 
L 257.191618 117.36 
L 257.343713 116.688 
L 257.374132 116.688 
L 257.495807 116.352 
L 257.556645 116.352 
L 257.67832 116.016 
L 257.708739 116.016 
L 257.830415 115.68 
L 257.891253 115.68 
L 258.012928 115.344 
L 258.043347 115.344 
L 258.165022 115.008 
L 258.195441 115.008 
L 258.317117 114.672 
L 258.377954 114.672 
L 258.49963 114.336 
L 258.530049 114.336 
L 258.651724 114 
L 258.682143 114 
L 258.803819 113.664 
L 258.864656 113.664 
L 258.986332 113.328 
L 259.04717 113.328 
L 259.168845 112.992 
L 259.199264 112.992 
L 259.32094 112.656 
L 259.351358 112.656 
L 259.473034 112.32 
L 259.503453 112.32 
L 259.625128 111.984 
L 259.685966 111.984 
L 259.807642 111.648 
L 259.868479 111.648 
L 259.990155 111.312 
L 260.020574 111.312 
L 260.142249 110.976 
L 260.203087 110.976 
L 260.324762 110.64 
L 260.355181 110.64 
L 260.476857 110.304 
L 260.507276 110.304 
L 260.628951 109.968 
L 260.689789 109.968 
L 260.811464 109.632 
L 260.841883 109.632 
L 260.993978 108.96 
L 261.024396 108.96 
L 261.146072 108.624 
L 261.20691 108.624 
L 261.328585 108.288 
L 261.389423 108.288 
L 261.511098 107.952 
L 261.571936 107.952 
L 261.724031 107.28 
L 261.754449 107.28 
L 261.876125 106.944 
L 261.936963 106.944 
L 262.058638 106.608 
L 262.089057 106.608 
L 262.210732 106.272 
L 262.241151 106.272 
L 262.362827 105.936 
L 262.393246 105.936 
L 262.514921 105.6 
L 262.54534 105.6 
L 262.667016 105.264 
L 262.697434 105.264 
L 262.81911 104.928 
L 262.849529 104.928 
L 262.971204 104.592 
L 263.032042 104.592 
L 263.153718 104.256 
L 263.214555 104.256 
L 263.336231 103.92 
L 263.36665 103.92 
L 263.488325 103.584 
L 263.549163 103.584 
L 263.670838 103.248 
L 263.701257 103.248 
L 263.853352 102.576 
L 263.88377 102.576 
L 264.005446 102.24 
L 264.035865 102.24 
L 264.15754 101.904 
L 264.218378 101.904 
L 264.340054 101.568 
L 264.370472 101.568 
L 264.492148 101.232 
L 264.522567 101.232 
L 264.644242 100.896 
L 264.735499 100.896 
L 264.857174 100.56 
L 264.887593 100.56 
L 265.009269 100.224 
L 265.070107 100.224 
L 265.191782 99.888 
L 265.222201 99.888 
L 265.343876 99.552 
L 265.404714 99.552 
L 265.52639 99.216 
L 265.556808 99.216 
L 265.708903 98.544 
L 265.769741 98.544 
L 265.891416 98.208 
L 265.921835 98.208 
L 266.04351 97.872 
L 266.073929 97.872 
L 266.195605 97.536 
L 266.226024 97.536 
L 266.347699 97.2 
L 266.408537 97.2 
L 266.530212 96.864 
L 266.560631 96.864 
L 266.682307 96.528 
L 266.712726 96.528 
L 266.834401 96.192 
L 266.86482 96.192 
L 266.986495 95.856 
L 267.016914 95.856 
L 267.13859 95.52 
L 267.169009 95.52 
L 267.290684 95.184 
L 267.321103 95.184 
L 267.442779 94.848 
L 267.503616 94.848 
L 267.625292 94.512 
L 267.655711 94.512 
L 267.777386 94.176 
L 267.838224 94.176 
L 267.959899 93.84 
L 267.990318 93.84 
L 268.111994 93.504 
L 268.172832 93.504 
L 268.294507 93.168 
L 268.324926 93.168 
L 268.446601 92.832 
L 268.507439 92.832 
L 268.629115 92.496 
L 268.659533 92.496 
L 268.781209 92.16 
L 268.842047 92.16 
L 268.963722 91.824 
L 268.994141 91.824 
L 269.115817 91.488 
L 269.176654 91.488 
L 269.29833 91.152 
L 269.328749 91.152 
L 269.480843 90.48 
L 269.511262 90.48 
L 269.632937 90.144 
L 269.663356 90.144 
L 269.785032 89.808 
L 269.84587 89.808 
L 269.967545 89.472 
L 269.997964 89.472 
L 270.119639 89.136 
L 270.180477 89.136 
L 270.302153 88.8 
L 270.332571 88.8 
L 270.454247 88.464 
L 270.515085 88.464 
L 270.63676 88.128 
L 270.667179 88.128 
L 270.788855 87.792 
L 270.880111 87.792 
L 271.001787 87.456 
L 271.032206 87.456 
L 271.153881 87.12 
L 271.214719 87.12 
L 271.336394 86.784 
L 271.397232 86.784 
L 271.518908 86.448 
L 271.549326 86.448 
L 271.701421 85.776 
L 271.762259 85.776 
L 271.883934 85.44 
L 271.914353 85.44 
L 272.036028 85.104 
L 272.096866 85.104 
L 272.218542 84.768 
L 272.24896 84.768 
L 272.370636 84.432 
L 272.431474 84.432 
L 272.553149 84.096 
L 272.613987 84.096 
L 272.735662 83.76 
L 272.766081 83.76 
L 272.887757 83.424 
L 272.948595 83.424 
L 273.07027 83.088 
L 273.131108 83.088 
L 273.252783 82.752 
L 273.283202 82.752 
L 273.404878 82.416 
L 273.465715 82.416 
L 273.587391 82.08 
L 273.61781 82.08 
L 273.739485 81.744 
L 273.769904 81.744 
L 273.89158 81.408 
L 273.921998 81.408 
L 274.043674 81.072 
L 274.074093 81.072 
L 274.195768 80.736 
L 274.256606 80.736 
L 274.378282 80.4 
L 274.4087 80.4 
L 274.530376 80.064 
L 274.621633 80.064 
L 274.773727 79.392 
L 274.834565 79.392 
L 274.95624 79.056 
L 274.986659 79.056 
L 275.108335 78.72 
L 275.138753 78.72 
L 275.260429 78.384 
L 275.290848 78.384 
L 275.412523 78.048 
L 275.442942 78.048 
L 275.564618 77.712 
L 275.595036 77.712 
L 275.716712 77.376 
L 275.807969 77.376 
L 275.929644 77.04 
L 275.990482 77.04 
L 276.112157 76.704 
L 276.172995 76.704 
L 276.294671 76.368 
L 276.325089 76.368 
L 276.446765 76.032 
L 276.477184 76.032 
L 276.598859 75.696 
L 276.629278 75.696 
L 276.750954 75.36 
L 276.781373 75.36 
L 276.903048 75.024 
L 276.994305 75.024 
L 277.11598 74.688 
L 277.146399 74.688 
L 277.268074 74.352 
L 277.328912 74.352 
L 277.450588 74.016 
L 277.481007 74.016 
L 277.602682 73.68 
L 277.66352 73.68 
L 277.785195 73.344 
L 277.815614 73.344 
L 277.967709 72.672 
L 277.998127 72.672 
L 278.119803 72.336 
L 278.150222 72.336 
L 278.271897 72 
L 278.302316 72 
L 278.423992 71.664 
L 278.484829 71.664 
L 278.606505 71.328 
L 278.636924 71.328 
L 278.758599 70.992 
L 278.819437 70.992 
L 278.941112 70.656 
L 278.971531 70.656 
L 279.123626 69.984 
L 279.154045 69.984 
L 279.27572 69.648 
L 279.306139 69.648 
L 279.427814 69.312 
L 279.458233 69.312 
L 279.579909 68.976 
L 279.610328 68.976 
L 279.732003 68.64 
L 279.762422 68.64 
L 279.884098 68.304 
L 279.914516 68.304 
L 280.036192 67.968 
L 280.066611 67.968 
L 280.188286 67.632 
L 280.218705 67.632 
L 280.340381 67.296 
L 280.3708 67.296 
L 280.492475 66.96 
L 498.109091 66.96 
L 498.109091 66.96 
" style="fill:none;stroke:#1f77b4;stroke-linecap:square;stroke-width:1.5;"/>
   </g>
   <g id="patch_3">
    <path d="M 72 384.48 
L 72 51.84 
" style="fill:none;stroke:#000000;stroke-linecap:square;stroke-linejoin:miter;stroke-width:0.8;"/>
   </g>
   <g id="patch_4">
    <path d="M 518.4 384.48 
L 518.4 51.84 
" style="fill:none;stroke:#000000;stroke-linecap:square;stroke-linejoin:miter;stroke-width:0.8;"/>
   </g>
   <g id="patch_5">
    <path d="M 72 384.48 
L 518.4 384.48 
" style="fill:none;stroke:#000000;stroke-linecap:square;stroke-linejoin:miter;stroke-width:0.8;"/>
   </g>
   <g id="patch_6">
    <path d="M 72 51.84 
L 518.4 51.84 
" style="fill:none;stroke:#000000;stroke-linecap:square;stroke-linejoin:miter;stroke-width:0.8;"/>
   </g>
  </g>
 </g>
 <defs>
  <clipPath id="pe8b1633900">
   <rect height="332.64" width="446.4" x="72" y="51.84"/>
  </clipPath>
 </defs>
</svg>
